<svg width="273" height="100" viewBox="0 0 273 100" fill="none" xmlns="http://www.w3.org/2000/svg">
<g clip-path="url(#clip0_2422_5304)">
<mask id="mask0_2422_5304" style="mask-type:luminance" maskUnits="userSpaceOnUse" x="0" y="23" width="172" height="54">
<path d="M171.969 23.1161H0V76.384H171.969V23.1161Z" fill="white"/>
</mask>
<g mask="url(#mask0_2422_5304)">
<path d="M152.172 37.2119L149.093 34.1332L148.478 33.5186C149.708 32.8812 150.662 31.7906 151.125 30.4692C151.189 30.2892 151.244 30.1066 151.288 29.9186C151.321 29.7759 151.349 29.6292 151.372 29.4826C151.413 29.2159 151.438 28.9439 151.438 28.6652C151.438 27.1732 150.836 25.8239 149.862 24.8373C149.46 24.4279 148.996 24.0812 148.481 23.8132C147.729 23.4226 146.876 23.1986 145.972 23.1986H140.529C140.414 23.1986 140.312 23.2412 140.232 23.3119C140.214 23.3346 140.198 23.3599 140.186 23.3879C140.138 23.5026 140.165 23.6359 140.254 23.7252L141.552 25.0225L142.002 25.4732L143.141 26.6119C143.333 26.8039 143.593 26.9119 143.865 26.9119H145.972C146.428 26.9119 146.842 27.0879 147.154 27.3745C147.505 27.6959 147.725 28.1545 147.725 28.6652C147.725 28.8799 147.678 29.0865 147.604 29.2772C147.442 29.6932 147.128 30.0159 146.744 30.2145C146.481 30.3505 146.185 30.4305 145.88 30.4372C145.16 30.4505 144.246 30.4679 144.141 30.4679H140.813C140.689 30.4679 140.576 30.5425 140.528 30.6586C140.48 30.7746 140.506 30.9066 140.594 30.9959L141.893 32.2945L142.342 32.7439L143.732 34.1332L147.249 37.6492C147.306 37.7079 147.385 37.7399 147.468 37.7399H151.953C152.078 37.7399 152.19 37.6652 152.238 37.5492C152.286 37.4332 152.26 37.2999 152.172 37.2119Z" fill="white"/>
<path d="M129.002 23.3977C128.951 23.2764 128.834 23.1978 128.703 23.1978H124.019C123.934 23.1978 123.852 23.2324 123.791 23.2924L116.843 30.2404C116.783 30.3017 116.748 30.3831 116.748 30.4698C116.748 30.5551 116.783 30.6378 116.843 30.6977L123.791 37.6457C123.852 37.7057 123.934 37.7404 124.019 37.7404H128.703C128.834 37.7404 128.951 37.6618 129.002 37.5404C129.052 37.4204 129.024 37.2804 128.931 37.1884L122.212 30.4698L128.931 23.7498C129.024 23.6578 129.052 23.5178 129.002 23.3977Z" fill="white"/>
<path d="M152.196 45.2733C152.145 45.152 152.028 45.0733 151.897 45.0733H147.213C147.128 45.0733 147.045 45.108 146.985 45.168L140.037 52.116C139.912 52.2427 139.912 52.4467 140.037 52.5733L146.985 59.5213C147.045 59.5813 147.128 59.616 147.213 59.616H151.897C152.028 59.616 152.145 59.5373 152.196 59.416C152.245 59.296 152.218 59.156 152.125 59.064L145.406 52.3453L152.125 45.6253C152.218 45.5333 152.245 45.3947 152.196 45.2733Z" fill="white"/>
<path d="M128.43 45.0741H118.735C118.557 45.0741 118.413 45.2181 118.413 45.3968V59.2928C118.413 59.4714 118.557 59.6154 118.735 59.6154H122.047C122.226 59.6154 122.37 59.4714 122.37 59.2928V49.0315H128.43C128.609 49.0315 128.753 48.8875 128.753 48.7088V45.3968C128.753 45.2195 128.609 45.0741 128.43 45.0741Z" fill="white"/>
<path d="M112.079 23.1163C111.855 23.1163 111.674 23.2977 111.674 23.5217V37.4176C111.674 37.6403 111.855 37.8217 112.079 37.8217C112.303 37.8217 112.484 37.6403 112.484 37.4176V23.5217C112.484 23.2977 112.303 23.1163 112.079 23.1163Z" fill="white"/>
<path d="M135.294 44.9917C135.07 44.9917 134.889 45.1731 134.889 45.3971V59.2931C134.889 59.5157 135.07 59.6971 135.294 59.6971C135.518 59.6971 135.7 59.5157 135.7 59.2931V45.3971C135.7 45.1731 135.518 44.9917 135.294 44.9917Z" fill="white"/>
<path d="M112.079 44.9917C111.855 44.9917 111.674 45.1731 111.674 45.3971V48.7091C111.674 48.9317 111.855 49.1144 112.079 49.1144C112.303 49.1144 112.484 48.9318 112.484 48.7091V45.3971C112.484 45.1731 112.303 44.9917 112.079 44.9917Z" fill="white"/>
<path d="M135.294 23.1163C135.07 23.1163 134.889 23.2977 134.889 23.5217V37.4176C134.889 37.6403 135.07 37.8217 135.294 37.8217C135.518 37.8217 135.7 37.6403 135.7 37.4176V23.5217C135.7 23.2977 135.518 23.1163 135.294 23.1163Z" fill="white"/>
<path d="M95.5303 63.2245H96.1796V65.5045H96.1916L97.9569 63.2245H98.7276L97.3543 64.9699L98.8716 67.6498H98.1009L96.9329 65.4859L96.1796 66.3019V67.6498H95.5303V63.2245Z" fill="white"/>
<path d="M99.3999 66.072C99.3999 65.7386 99.4279 65.484 99.4812 65.3053C99.5359 65.1307 99.6186 64.984 99.7319 64.8653C99.8172 64.76 99.9346 64.6666 100.087 64.584C100.235 64.5053 100.427 64.464 100.66 64.4599C100.9 64.464 101.096 64.5053 101.244 64.584C101.392 64.668 101.505 64.7613 101.585 64.8667C101.707 64.9867 101.792 65.1319 101.844 65.3066C101.892 65.484 101.916 65.7387 101.916 66.072C101.916 66.404 101.892 66.656 101.844 66.8307C101.792 67.0053 101.705 67.1546 101.584 67.2826C101.545 67.3293 101.497 67.3746 101.44 67.4187C101.389 67.4693 101.324 67.5133 101.244 67.5493C101.093 67.636 100.9 67.6813 100.659 67.6867C100.427 67.6813 100.235 67.636 100.087 67.5493C99.9346 67.4707 99.8172 67.3813 99.7319 67.2826C99.6186 67.1546 99.5359 67.0053 99.4812 66.8307C99.4279 66.656 99.3999 66.404 99.3999 66.072ZM99.8066 63.34H100.456V64.008H99.8066V63.34ZM101.304 66.0773C101.304 65.8533 101.295 65.688 101.275 65.584C101.255 65.484 101.216 65.3973 101.153 65.3213C101.109 65.252 101.043 65.196 100.953 65.1546C100.869 65.112 100.771 65.0907 100.659 65.0907C100.555 65.0907 100.459 65.112 100.371 65.1546C100.285 65.196 100.217 65.252 100.164 65.3213C100.111 65.3973 100.072 65.484 100.048 65.584C100.025 65.688 100.013 65.8506 100.013 66.072C100.013 66.2906 100.025 66.4506 100.048 66.5533C100.072 66.656 100.111 66.748 100.164 66.8279C100.217 66.888 100.285 66.9413 100.371 66.9879C100.459 67.032 100.555 67.0546 100.659 67.0546C100.771 67.0546 100.869 67.032 100.953 66.9879C101.043 66.9413 101.109 66.888 101.153 66.8279C101.216 66.7479 101.255 66.6559 101.275 66.5533C101.295 66.4506 101.304 66.2933 101.304 66.0773ZM100.903 63.34H101.552V64.008H100.903V63.34Z" fill="white"/>
<path d="M102.622 67.149L104.15 65.0584H102.657V64.4997H104.898V65.0037L103.321 67.0544H104.898V67.6504H102.622V67.149Z" fill="white"/>
<path d="M107.457 67.3202C107.255 67.5562 106.994 67.6789 106.671 67.6856C106.473 67.6815 106.309 67.6389 106.178 67.5562C106.039 67.4762 105.935 67.3922 105.862 67.3002C105.782 67.1976 105.723 67.0696 105.689 66.9216C105.653 66.7722 105.633 66.4922 105.633 66.0762C105.633 65.6522 105.653 65.3669 105.689 65.2176C105.723 65.0682 105.782 64.9442 105.862 64.8442C105.935 64.7455 106.039 64.6562 106.178 64.5775C106.309 64.5042 106.473 64.4642 106.671 64.4602C106.974 64.4602 107.237 64.5842 107.457 64.8336V64.4989H108.07V67.5736C108.062 68.0469 107.93 68.3949 107.674 68.6176C107.417 68.8469 107.106 68.9616 106.747 68.9616C106.333 68.9536 105.981 68.7776 105.689 68.4349L106.166 68.0429C106.243 68.1189 106.334 68.1829 106.435 68.2362C106.539 68.2949 106.646 68.3269 106.759 68.3296C106.969 68.3296 107.137 68.2709 107.265 68.1509C107.389 68.0282 107.454 67.8589 107.457 67.6442V67.3202ZM106.246 66.0775C106.246 66.3189 106.254 66.4856 106.27 66.5762C106.283 66.6722 106.315 66.7509 106.366 66.8149C106.409 66.8709 106.47 66.9229 106.555 66.9696C106.634 67.0256 106.734 67.0549 106.854 67.0549C106.974 67.0549 107.074 67.0256 107.155 66.9696C107.235 66.9229 107.297 66.8709 107.337 66.8149C107.389 66.7509 107.422 66.6722 107.441 66.5762C107.453 66.4856 107.457 66.3189 107.457 66.0775C107.457 65.8322 107.453 65.6616 107.441 65.5656C107.422 65.4709 107.389 65.3936 107.337 65.3336C107.297 65.2776 107.235 65.2216 107.155 65.1669C107.074 65.1202 106.974 65.0936 106.854 65.0909C106.734 65.0936 106.634 65.1202 106.555 65.1669C106.47 65.2216 106.409 65.2776 106.366 65.3336C106.315 65.3936 106.283 65.4709 106.27 65.5656C106.254 65.6616 106.246 65.8322 106.246 66.0775Z" fill="white"/>
<path d="M110.734 67.3704H110.722C110.666 67.4784 110.578 67.557 110.458 67.6077C110.339 67.661 110.176 67.6864 109.97 67.6864C109.628 67.6824 109.366 67.5891 109.183 67.4064C108.988 67.229 108.891 67.0024 108.891 66.7237C108.891 66.4584 108.975 66.2397 109.143 66.0651C109.312 65.8877 109.559 65.7971 109.884 65.7917H110.734V65.4597C110.738 65.1824 110.528 65.045 110.107 65.0544C109.955 65.0544 109.834 65.0717 109.746 65.1037C109.654 65.1411 109.582 65.2064 109.528 65.2997L109.046 64.9184C109.28 64.6037 109.623 64.4517 110.076 64.4597C110.46 64.4557 110.767 64.5317 110.996 64.6851C111.226 64.8424 111.342 65.1144 111.347 65.4984V67.6504H110.734L110.734 67.3704ZM110.734 66.3143H109.998C109.639 66.3224 109.463 66.449 109.468 66.6943C109.468 66.801 109.514 66.893 109.606 66.9664C109.694 67.0503 109.84 67.0917 110.044 67.0917C110.302 67.0957 110.483 67.0637 110.59 66.997C110.686 66.9303 110.734 66.7784 110.734 66.5424V66.3143Z" fill="white"/>
<path d="M112.2 67.149L113.729 65.0584H112.236V64.4997H114.476V65.0037L112.898 67.0544H114.476V67.6504H112.2V67.149Z" fill="white"/>
<path d="M117.146 67.3205C116.943 67.5552 116.679 67.6792 116.355 67.6859C116.171 67.6819 116.014 67.6419 115.883 67.5685C115.744 67.4952 115.631 67.3979 115.539 67.2765C115.455 67.1766 115.399 67.0432 115.371 66.8726C115.338 66.7099 115.322 66.4432 115.322 66.0699C115.322 65.6925 115.338 65.4219 115.371 65.2632C115.399 65.1005 115.455 64.9699 115.539 64.8712C115.711 64.6072 115.983 64.4699 116.355 64.4605C116.512 64.4605 116.656 64.4938 116.791 64.5605C116.914 64.6299 117.031 64.7205 117.146 64.8312V63.2245H117.759V67.6498H117.146L117.146 67.3205ZM116.543 65.0912C116.398 65.0912 116.287 65.1165 116.211 65.1672C116.126 65.2219 116.063 65.2979 116.026 65.3912C115.987 65.4872 115.963 65.5925 115.951 65.7032C115.939 65.8232 115.935 65.9459 115.935 66.0712C115.935 66.1912 115.939 66.3085 115.951 66.4219C115.963 66.5419 115.987 66.6498 116.026 66.7459C116.063 66.8365 116.126 66.9112 116.211 66.9699C116.287 67.0259 116.398 67.0552 116.543 67.0552C116.687 67.0552 116.803 67.0245 116.886 66.9646C116.971 66.9045 117.028 66.8272 117.06 66.7312C117.1 66.6378 117.126 66.5299 117.139 66.4126C117.144 66.2965 117.146 66.1832 117.146 66.0712C117.146 65.9499 117.144 65.8339 117.139 65.7205C117.126 65.6099 117.1 65.5059 117.06 65.4112C117.028 65.3152 116.971 65.2379 116.886 65.1792C116.803 65.1205 116.687 65.0912 116.543 65.0912Z" fill="white"/>
<path d="M120.311 67.3704H120.301C120.243 67.4784 120.155 67.557 120.035 67.6077C119.918 67.661 119.755 67.6864 119.547 67.6864C119.206 67.6824 118.943 67.5891 118.761 67.4064C118.566 67.229 118.469 67.0024 118.469 66.7237C118.469 66.4584 118.554 66.2397 118.722 66.0651C118.891 65.8877 119.138 65.7971 119.463 65.7917H120.311V65.4597C120.315 65.1824 120.107 65.045 119.686 65.0544C119.533 65.0544 119.413 65.0717 119.325 65.1037C119.233 65.1411 119.159 65.2064 119.106 65.2997L118.625 64.9184C118.858 64.6037 119.202 64.4517 119.655 64.4597C120.039 64.4557 120.346 64.5317 120.575 64.6851C120.805 64.8424 120.919 65.1144 120.925 65.4984V67.6504H120.311L120.311 67.3704ZM120.311 66.3143H119.575C119.219 66.3224 119.041 66.449 119.046 66.6943C119.046 66.801 119.091 66.893 119.183 66.9664C119.271 67.0503 119.419 67.0917 119.622 67.0917C119.881 67.0957 120.061 67.0637 120.167 66.997C120.265 66.9303 120.311 66.7784 120.311 66.5424V66.3143Z" fill="white"/>
<path d="M122.069 66.6877C122.318 66.9557 122.639 67.0917 123.035 67.0917C123.211 67.0917 123.355 67.057 123.467 66.985C123.581 66.9157 123.637 66.8157 123.637 66.6877C123.637 66.5757 123.603 66.4971 123.537 66.4504C123.467 66.4037 123.375 66.3797 123.262 66.3757L122.719 66.3263C122.463 66.3024 122.254 66.213 122.093 66.0597C121.927 65.909 121.845 65.6997 121.839 65.4317C121.845 65.1077 121.955 64.865 122.171 64.7024C122.385 64.5397 122.653 64.4597 122.978 64.4597C123.119 64.4597 123.246 64.469 123.357 64.4877C123.47 64.5064 123.574 64.5357 123.673 64.5717C123.861 64.6517 124.03 64.757 124.178 64.8904L123.799 65.349C123.681 65.261 123.555 65.1877 123.423 65.1303C123.295 65.081 123.145 65.0544 122.977 65.0544C122.783 65.0544 122.65 65.089 122.573 65.161C122.493 65.2317 122.453 65.3237 122.453 65.4344C122.449 65.505 122.478 65.5677 122.543 65.6197C122.603 65.6784 122.706 65.717 122.855 65.7317L123.362 65.7717C123.681 65.7957 123.91 65.8957 124.053 66.0704C124.183 66.2397 124.25 66.4557 124.25 66.717C124.245 67.0237 124.125 67.2584 123.887 67.425C123.651 67.5957 123.351 67.6823 122.983 67.6864C122.486 67.6864 122.038 67.4983 121.641 67.1224L122.069 66.6877Z" fill="white"/>
<path d="M126.726 67.3708H126.715C126.658 67.4788 126.57 67.5574 126.45 67.6068C126.334 67.6601 126.171 67.6868 125.963 67.6868C125.622 67.6815 125.359 67.5895 125.175 67.4068C124.98 67.2294 124.884 67.0015 124.884 66.7241C124.884 66.4588 124.968 66.2401 125.138 66.0655C125.306 65.8881 125.554 65.7974 125.878 65.7921H126.726V65.4601C126.731 65.1828 126.523 65.0455 126.1 65.0548C125.947 65.0548 125.827 65.0721 125.739 65.1028C125.647 65.1415 125.574 65.2068 125.522 65.2988L125.04 64.9188C125.272 64.6041 125.616 64.4521 126.071 64.4601C126.455 64.4548 126.762 64.5308 126.99 64.6841C127.219 64.8428 127.335 65.1134 127.339 65.4975V67.6495H126.726L126.726 67.3708ZM126.726 66.3148H125.99C125.634 66.3214 125.456 66.4495 125.46 66.6935C125.46 66.8015 125.506 66.8921 125.599 66.9668C125.687 67.0508 125.834 67.0908 126.038 67.0908C126.295 67.0962 126.476 67.0641 126.582 66.9975C126.679 66.9308 126.726 66.7788 126.726 66.5415V66.3148ZM126.371 63.1881H127.178L126.324 64.0921H125.819L126.371 63.1881Z" fill="white"/>
<path d="M130.109 67.3202C129.907 67.5562 129.645 67.6789 129.322 67.6856C129.125 67.6815 128.959 67.6389 128.829 67.5562C128.691 67.4762 128.587 67.3922 128.514 67.3002C128.434 67.1976 128.375 67.0696 128.341 66.9216C128.303 66.7722 128.285 66.4922 128.285 66.0762C128.285 65.6522 128.303 65.3669 128.341 65.2176C128.375 65.0682 128.434 64.9442 128.514 64.8442C128.587 64.7455 128.691 64.6562 128.829 64.5775C128.959 64.5042 129.125 64.4642 129.322 64.4602C129.625 64.4602 129.887 64.5842 130.109 64.8336V64.4989H130.722V67.5736C130.713 68.0469 130.581 68.3949 130.325 68.6176C130.066 68.8469 129.757 68.9616 129.397 68.9616C128.985 68.9536 128.633 68.7776 128.341 68.4349L128.817 68.0429C128.895 68.1189 128.985 68.1829 129.086 68.2362C129.191 68.2949 129.298 68.3269 129.41 68.3296C129.619 68.3296 129.787 68.2709 129.915 68.1509C130.041 68.0282 130.105 67.8589 130.109 67.6442L130.109 67.3202ZM128.898 66.0775C128.898 66.3189 128.906 66.4856 128.921 66.5762C128.934 66.6722 128.966 66.7509 129.018 66.8149C129.059 66.8709 129.121 66.9229 129.206 66.9696C129.286 67.0256 129.386 67.0549 129.506 67.0549C129.626 67.0549 129.725 67.0256 129.806 66.9696C129.886 66.9229 129.946 66.8709 129.989 66.8149C130.039 66.7509 130.074 66.6722 130.091 66.5762C130.103 66.4856 130.109 66.3189 130.109 66.0775C130.109 65.8322 130.103 65.6616 130.091 65.5656C130.074 65.4709 130.039 65.3936 129.989 65.3336C129.946 65.2776 129.886 65.2216 129.806 65.1669C129.725 65.1202 129.626 65.0936 129.506 65.0909C129.386 65.0936 129.286 65.1202 129.206 65.1669C129.121 65.2216 129.059 65.2776 129.018 65.3336C128.966 65.3936 128.934 65.4709 128.921 65.5656C128.906 65.6616 128.898 65.8322 128.898 66.0775Z" fill="white"/>
<path d="M133.373 65.612H131.564V66.2426H133.373V65.612Z" fill="white"/>
<path d="M136.447 66.3133C136.447 66.5666 136.516 66.7573 136.657 66.8893C136.789 67.0227 136.961 67.0893 137.175 67.0893C137.424 67.0893 137.647 66.988 137.843 66.784L138.287 67.1747C137.976 67.52 137.609 67.6893 137.188 67.6853C137.028 67.6853 136.871 67.66 136.717 67.612C136.64 67.5867 136.567 67.5493 136.495 67.5053C136.417 67.468 136.347 67.4187 136.279 67.3627C136.151 67.2467 136.045 67.0827 135.965 66.872C135.877 66.6694 135.833 66.4053 135.833 66.0827C135.833 65.7707 135.871 65.512 135.947 65.3053C136.024 65.0947 136.121 64.9293 136.241 64.808C136.363 64.684 136.5 64.5947 136.649 64.54C136.799 64.4854 136.945 64.4587 137.091 64.4587C137.44 64.4627 137.735 64.5813 137.976 64.8133C138.22 65.0507 138.345 65.376 138.349 65.7907V66.3133L136.447 66.3133ZM137.736 65.7906C137.728 65.5453 137.665 65.3587 137.545 65.232C137.427 65.112 137.275 65.0533 137.091 65.0533C136.907 65.0533 136.755 65.112 136.637 65.232C136.52 65.3587 136.457 65.5453 136.447 65.7906H137.736ZM137.229 63.1866H138.037L137.183 64.0907H136.677L137.229 63.1866Z" fill="white"/>
<path d="M139.343 66.6862C139.593 66.9542 139.915 67.0902 140.31 67.0902C140.487 67.0902 140.631 67.0556 140.745 66.9836C140.857 66.9142 140.911 66.8142 140.911 66.6862C140.911 66.5742 140.878 66.4956 140.811 66.4489C140.742 66.4022 140.651 66.3782 140.538 66.3742L139.995 66.3249C139.738 66.3009 139.529 66.2116 139.367 66.0582C139.203 65.9076 139.119 65.6982 139.114 65.4302C139.119 65.1062 139.23 64.8636 139.446 64.7009C139.659 64.5382 139.927 64.4582 140.254 64.4582C140.395 64.4582 140.521 64.4676 140.633 64.4862C140.745 64.5049 140.85 64.5342 140.947 64.5702C141.135 64.6502 141.305 64.7556 141.454 64.8889L141.074 65.3475C140.957 65.2596 140.83 65.1862 140.701 65.1289C140.57 65.0796 140.421 65.0529 140.253 65.0529C140.059 65.0529 139.925 65.0876 139.849 65.1596C139.769 65.2302 139.727 65.3222 139.727 65.4329C139.723 65.5036 139.753 65.5662 139.818 65.6182C139.878 65.6769 139.982 65.7156 140.131 65.7302L140.638 65.7702C140.955 65.7942 141.186 65.8942 141.327 66.0689C141.459 66.2382 141.525 66.4542 141.525 66.7155C141.519 67.0222 141.399 67.2569 141.163 67.4236C140.927 67.5943 140.626 67.6809 140.259 67.6849C139.762 67.6849 139.313 67.4969 138.915 67.1209L139.343 66.6862Z" fill="white"/>
<path d="M144.106 63.2225H145.781C146.138 63.2225 146.428 63.3199 146.655 63.5145C146.927 63.7345 147.068 64.0505 147.08 64.4585C147.072 65.0598 146.796 65.4678 146.252 65.6852L147.244 67.6478H146.473L145.587 65.7572H144.755V67.6478H144.106L144.106 63.2225ZM144.755 65.1625H145.741C145.983 65.1598 146.167 65.0852 146.289 64.9439C146.407 64.8119 146.467 64.6492 146.467 64.4572C146.465 64.2265 146.393 64.0572 146.253 63.9545C146.142 63.8638 145.983 63.8185 145.775 63.8185H144.755V65.1625Z" fill="white"/>
<path d="M148.466 66.3135C148.466 66.5668 148.536 66.7574 148.677 66.8894C148.809 67.0228 148.98 67.0895 149.194 67.0895C149.444 67.0895 149.666 66.9881 149.862 66.7828L150.306 67.1748C149.996 67.5188 149.628 67.6895 149.208 67.6855C149.046 67.6855 148.89 67.6601 148.737 67.6121C148.66 67.5868 148.585 67.5494 148.514 67.5055C148.437 67.4681 148.365 67.4188 148.298 67.3628C148.17 67.2468 148.065 67.0828 147.985 66.8708C147.897 66.6695 147.853 66.4055 147.853 66.0828C147.853 65.7708 147.89 65.5121 147.966 65.3055C148.044 65.0948 148.141 64.9281 148.261 64.8068C148.382 64.6841 148.518 64.5948 148.669 64.5401C148.818 64.4855 148.965 64.4588 149.11 64.4588C149.46 64.4628 149.754 64.5815 149.996 64.8135C150.24 65.0508 150.364 65.3762 150.369 65.7908V66.3135L148.466 66.3135ZM149.756 65.7908C149.748 65.5454 149.685 65.3588 149.565 65.2321C149.446 65.1121 149.294 65.0535 149.11 65.0535C148.925 65.0535 148.774 65.1121 148.657 65.2321C148.54 65.3588 148.476 65.5454 148.466 65.7908H149.756Z" fill="white"/>
<path d="M152.988 67.3188C152.786 67.5548 152.525 67.6774 152.202 67.6841C152.004 67.6801 151.84 67.6374 151.709 67.5548C151.57 67.4748 151.466 67.3908 151.393 67.2988C151.313 67.1961 151.254 67.0681 151.22 66.9201C151.184 66.7708 151.164 66.4907 151.164 66.0748C151.164 65.6508 151.184 65.3654 151.22 65.2161C151.254 65.0668 151.313 64.9428 151.393 64.8428C151.466 64.7441 151.57 64.6548 151.709 64.5761C151.84 64.5028 152.004 64.4628 152.202 64.4588C152.505 64.4588 152.768 64.5828 152.988 64.8321V64.4974H153.601V67.5721C153.593 68.0454 153.461 68.3934 153.205 68.6161C152.948 68.8454 152.637 68.9601 152.278 68.9601C151.864 68.9521 151.512 68.7761 151.22 68.4334L151.697 68.0414C151.774 68.1174 151.865 68.1814 151.966 68.2334C152.07 68.2934 152.177 68.3254 152.29 68.3281C152.5 68.3281 152.668 68.2694 152.796 68.1494C152.92 68.0268 152.985 67.8574 152.988 67.6428V67.3188ZM151.777 66.0761C151.777 66.3174 151.785 66.4841 151.801 66.5748C151.814 66.6708 151.846 66.7494 151.897 66.8134C151.94 66.8694 152.001 66.9214 152.086 66.9681C152.165 67.0241 152.265 67.0534 152.385 67.0534C152.505 67.0534 152.605 67.0241 152.686 66.9681C152.766 66.9214 152.828 66.8694 152.868 66.8134C152.92 66.7494 152.953 66.6708 152.972 66.5748C152.984 66.4841 152.988 66.3174 152.988 66.0761C152.988 65.8308 152.984 65.6601 152.972 65.5641C152.953 65.4694 152.92 65.3921 152.868 65.3321C152.828 65.2761 152.766 65.2201 152.686 65.1654C152.605 65.1188 152.505 65.0921 152.385 65.0894C152.265 65.0921 152.165 65.1188 152.086 65.1654C152.001 65.2201 151.94 65.2761 151.897 65.3321C151.846 65.3921 151.814 65.4694 151.801 65.5641C151.785 65.6601 151.777 65.8308 151.777 66.0761Z" fill="white"/>
<path d="M154.68 63.2227H155.293V63.8533H154.68V63.2227ZM154.68 64.4973H155.293V67.648H154.68V64.4973Z" fill="white"/>
<path d="M156.162 66.0694C156.162 65.7374 156.189 65.4828 156.242 65.3041C156.297 65.1294 156.381 64.9814 156.494 64.8641C156.579 64.7588 156.695 64.6641 156.847 64.5827C156.997 64.5041 157.187 64.4627 157.421 64.4587C157.661 64.4627 157.857 64.5041 158.006 64.5827C158.153 64.6668 158.266 64.7601 158.347 64.8654C158.469 64.9854 158.553 65.1308 158.605 65.3054C158.654 65.4828 158.678 65.7374 158.678 66.0694C158.678 66.4028 158.654 66.6548 158.605 66.8294C158.553 67.0027 158.467 67.1534 158.346 67.2814C158.306 67.3281 158.259 67.3734 158.201 67.4174C158.151 67.4681 158.086 67.5121 158.006 67.5481C157.855 67.6347 157.661 67.6801 157.419 67.6841C157.187 67.6801 156.997 67.6347 156.847 67.5481C156.695 67.4694 156.579 67.3801 156.494 67.2814C156.381 67.1534 156.297 67.0027 156.242 66.8294C156.189 66.6548 156.162 66.4028 156.162 66.0694ZM158.065 66.0761C158.065 65.8521 158.055 65.6854 158.035 65.5827C158.017 65.4828 157.977 65.3961 157.914 65.3201C157.87 65.2507 157.803 65.1948 157.714 65.1534C157.63 65.1107 157.531 65.0894 157.419 65.0894C157.317 65.0894 157.219 65.1107 157.131 65.1534C157.046 65.1948 156.978 65.2507 156.925 65.3201C156.871 65.3961 156.834 65.4828 156.81 65.5827C156.787 65.6854 156.774 65.8481 156.774 66.0694C156.774 66.2881 156.787 66.4494 156.81 66.5507C156.834 66.6547 156.871 66.7467 156.925 66.8254C156.978 66.8867 157.046 66.9401 157.131 66.9867C157.219 67.0307 157.317 67.0534 157.419 67.0534C157.531 67.0534 157.63 67.0307 157.714 66.9867C157.803 66.9401 157.87 66.8867 157.914 66.8254C157.977 66.7467 158.017 66.6547 158.035 66.5507C158.055 66.4494 158.065 66.2921 158.065 66.0761Z" fill="white"/>
<path d="M159.584 64.4978H160.197V64.8312H160.208C160.409 64.5832 160.673 64.4578 161.001 64.4578C161.253 64.4578 161.485 64.5512 161.694 64.7352C161.901 64.9219 162.01 65.1938 162.021 65.5538V67.6485H161.408V65.7698C161.408 65.5498 161.35 65.3805 161.238 65.2658C161.125 65.1485 160.981 65.0898 160.805 65.0898C160.628 65.0898 160.484 65.1485 160.37 65.2658C160.254 65.3805 160.197 65.5498 160.197 65.7698V67.6485H159.584L159.584 64.4978Z" fill="white"/>
<path d="M164.685 67.3693H164.675C164.617 67.4773 164.529 67.556 164.409 67.6053C164.292 67.6586 164.131 67.6853 163.923 67.6853C163.581 67.68 163.319 67.588 163.135 67.4053C162.94 67.228 162.844 67 162.844 66.7227C162.844 66.4573 162.928 66.2386 163.097 66.064C163.265 65.8867 163.513 65.796 163.837 65.7906H164.685V65.4587C164.691 65.1813 164.483 65.044 164.06 65.0533C163.907 65.0533 163.787 65.0707 163.699 65.1013C163.607 65.14 163.533 65.2053 163.481 65.2973L163 64.9173C163.232 64.6027 163.576 64.4507 164.031 64.4587C164.415 64.4533 164.72 64.5293 164.949 64.6827C165.179 64.8413 165.295 65.112 165.299 65.496V67.648H164.685L164.685 67.3693ZM164.685 66.3133H163.949C163.593 66.32 163.416 66.448 163.42 66.692C163.42 66.8 163.465 66.8907 163.559 66.9653C163.647 67.0493 163.793 67.0893 163.997 67.0893C164.255 67.0947 164.436 67.0627 164.541 66.996C164.639 66.9293 164.685 66.7773 164.685 66.54V66.3133ZM164.331 63.1866H165.137L164.284 64.0907H163.779L164.331 63.1866Z" fill="white"/>
<path d="M166.354 63.223H166.967V66.8377C166.967 66.9817 167.043 67.0537 167.196 67.0537H167.408V67.6484H167.135C166.912 67.6484 166.727 67.591 166.583 67.4751C166.43 67.359 166.354 67.163 166.354 66.887V63.223Z" fill="white"/>
<path d="M168.136 63.2227H168.749V63.8533H168.136V63.2227ZM168.136 64.4973H168.749V67.648H168.136V64.4973Z" fill="white"/>
<path d="M169.859 66.6862C170.109 66.9542 170.43 67.0902 170.826 67.0902C171.002 67.0902 171.146 67.0556 171.258 66.9836C171.371 66.9142 171.427 66.8142 171.427 66.6862C171.427 66.5742 171.394 66.4956 171.327 66.4489C171.258 66.4022 171.166 66.3782 171.053 66.3742L170.51 66.3249C170.254 66.3009 170.045 66.2116 169.883 66.0582C169.718 65.9076 169.635 65.6982 169.63 65.4302C169.635 65.1062 169.746 64.8636 169.962 64.7009C170.175 64.5382 170.443 64.4582 170.769 64.4582C170.91 64.4582 171.037 64.4676 171.147 64.4862C171.261 64.5049 171.365 64.5342 171.463 64.5702C171.651 64.6502 171.749 64.7569 171.898 64.8902L171.59 65.3476C171.471 65.2596 171.346 65.1862 171.214 65.1289C171.086 65.0796 170.935 65.0529 170.767 65.0529C170.574 65.0529 170.441 65.0876 170.363 65.1596C170.283 65.2302 170.243 65.3222 170.243 65.4329C170.239 65.5036 170.269 65.5662 170.334 65.6182C170.394 65.6769 170.497 65.7156 170.646 65.7302L171.153 65.7702C171.471 65.7943 171.629 65.8956 171.771 66.0703C171.902 66.2396 171.969 66.4556 171.969 66.7169C171.965 67.0236 171.915 67.2569 171.678 67.4236C171.442 67.5943 171.142 67.6809 170.774 67.6849C170.277 67.6849 169.829 67.4969 169.431 67.1209L169.859 66.6862Z" fill="white"/>
<path d="M96.2588 71.2785H95.0841V70.6838H98.0828V71.2785H96.9081V75.1092H96.2588V71.2785Z" fill="white"/>
<path d="M98.174 71.9583H98.7873V73.837C98.7873 74.049 98.8446 74.2157 98.9606 74.3344C99.0739 74.4544 99.2193 74.5144 99.3953 74.5144C99.5713 74.5144 99.7153 74.4544 99.8286 74.3344C99.9419 74.2157 99.9979 74.049 99.9979 73.837V71.9583H100.611V75.109H99.9979V74.7717H99.9873C99.786 75.021 99.5219 75.145 99.1966 75.145C98.9446 75.141 98.7153 75.0464 98.5126 74.8597C98.2913 74.6797 98.1779 74.4104 98.174 74.0544L98.174 71.9583Z" fill="white"/>
<path d="M103.499 74.7796C103.297 75.0142 103.033 75.1382 102.709 75.1449C102.525 75.1409 102.367 75.1009 102.237 75.0276C102.098 74.9542 101.985 74.8569 101.893 74.7356C101.809 74.6356 101.753 74.5023 101.725 74.3316C101.691 74.1689 101.675 73.9022 101.675 73.5289C101.675 73.1516 101.691 72.8809 101.725 72.7223C101.753 72.5596 101.809 72.4289 101.893 72.3303C102.065 72.0663 102.337 71.9289 102.709 71.9182C102.866 71.9182 103.01 71.9529 103.145 72.0196C103.267 72.0889 103.385 72.1796 103.499 72.2903V70.6836H104.113V75.1089H103.499L103.499 74.7796ZM102.897 72.5502C102.751 72.5502 102.641 72.5756 102.565 72.6262C102.479 72.6809 102.417 72.7569 102.379 72.8502C102.341 72.9463 102.317 73.0516 102.305 73.1622C102.293 73.2822 102.289 73.4049 102.289 73.5302C102.289 73.6502 102.293 73.7676 102.305 73.8809C102.317 74.0009 102.341 74.1089 102.379 74.2049C102.417 74.2956 102.479 74.3702 102.565 74.4289C102.641 74.4849 102.751 74.5143 102.897 74.5143C103.041 74.5143 103.157 74.4836 103.239 74.4236C103.325 74.3636 103.382 74.2862 103.414 74.1902C103.454 74.0969 103.479 73.9889 103.493 73.8716C103.498 73.7556 103.499 73.6422 103.499 73.5303C103.499 73.4089 103.498 73.2929 103.493 73.1796C103.479 73.0689 103.454 72.9649 103.414 72.8703C103.382 72.7743 103.325 72.6969 103.239 72.6383C103.157 72.5796 103.041 72.5502 102.897 72.5502Z" fill="white"/>
<path d="M104.911 73.53C104.911 73.198 104.938 72.9433 104.991 72.7647C105.046 72.59 105.13 72.442 105.243 72.3246C105.328 72.2193 105.444 72.1246 105.596 72.0433C105.746 71.9646 105.936 71.9233 106.17 71.9193C106.41 71.9233 106.606 71.9646 106.755 72.0433C106.902 72.1273 107.015 72.2206 107.096 72.326C107.218 72.446 107.302 72.5913 107.354 72.766C107.403 72.9433 107.427 73.198 107.427 73.53C107.427 73.8633 107.403 74.1153 107.354 74.29C107.302 74.4633 107.216 74.614 107.095 74.742C107.055 74.7887 107.008 74.834 106.95 74.878C106.9 74.9286 106.835 74.9727 106.755 75.0086C106.604 75.0953 106.41 75.1406 106.168 75.1447C105.936 75.1406 105.746 75.0953 105.596 75.0086C105.444 74.93 105.328 74.8407 105.243 74.742C105.13 74.614 105.046 74.4633 104.991 74.29C104.938 74.1153 104.911 73.8633 104.911 73.53ZM106.814 73.5366C106.814 73.3126 106.804 73.1473 106.784 73.0433C106.766 72.9433 106.726 72.8567 106.663 72.7806C106.619 72.7113 106.552 72.6553 106.463 72.614C106.379 72.5713 106.28 72.55 106.168 72.55C106.066 72.55 105.968 72.5713 105.88 72.614C105.795 72.6553 105.727 72.7113 105.674 72.7806C105.62 72.8567 105.583 72.9433 105.559 73.0433C105.536 73.1473 105.523 73.3086 105.523 73.53C105.523 73.7487 105.536 73.91 105.559 74.0113C105.583 74.1153 105.62 74.2073 105.674 74.286C105.727 74.3473 105.795 74.4006 105.88 74.4473C105.968 74.4913 106.066 74.5139 106.168 74.5139C106.28 74.5139 106.379 74.4913 106.463 74.4473C106.552 74.4006 106.619 74.3473 106.663 74.286C106.726 74.2073 106.766 74.1153 106.784 74.0113C106.804 73.91 106.814 73.7527 106.814 73.5366Z" fill="white"/>
<path d="M108.309 71.9584H108.922V72.2917H108.934C109.142 72.0437 109.417 71.9184 109.757 71.9184C109.975 71.9237 110.151 71.9597 110.285 72.0317C110.415 72.1104 110.537 72.2104 110.646 72.3317C110.891 72.0531 111.225 71.9144 111.638 71.9184C111.899 71.9184 112.138 72.0117 112.354 72.1957C112.569 72.3824 112.681 72.6544 112.689 73.0144V75.109H112.075V73.2304C112.075 73.0103 112.017 72.841 111.899 72.7264C111.782 72.609 111.631 72.5503 111.446 72.5503C111.261 72.5503 111.107 72.609 110.989 72.7264C110.867 72.841 110.806 73.0103 110.806 73.2304V75.109H110.194V73.2304C110.194 73.0103 110.134 72.841 110.018 72.7264C109.898 72.609 109.746 72.5503 109.561 72.5503C109.375 72.5503 109.223 72.609 109.107 72.7264C108.982 72.841 108.922 73.0103 108.922 73.2304V75.109H108.309L108.309 71.9584Z" fill="white"/>
<path d="M115.392 74.8298H115.382C115.324 74.9378 115.236 75.0165 115.116 75.0658C115 75.1191 114.838 75.1458 114.63 75.1458C114.288 75.1405 114.026 75.0485 113.842 74.8658C113.647 74.6885 113.551 74.4605 113.551 74.1832C113.551 73.9178 113.635 73.6992 113.804 73.5245C113.972 73.3472 114.22 73.2565 114.544 73.2512H115.392V72.9192C115.398 72.6418 115.19 72.5045 114.767 72.5138C114.614 72.5138 114.494 72.5312 114.407 72.5618C114.314 72.6005 114.24 72.6658 114.188 72.7578L113.707 72.3778C113.939 72.0632 114.283 71.9112 114.738 71.9192C115.122 71.9138 115.428 71.9898 115.656 72.1432C115.886 72.3019 116.002 72.5725 116.006 72.9565V75.1085H115.392L115.392 74.8298ZM115.392 73.7738H114.656C114.3 73.7805 114.123 73.9085 114.127 74.1525C114.127 74.2605 114.172 74.3512 114.266 74.4258C114.354 74.5098 114.5 74.5498 114.704 74.5498C114.962 74.5552 115.143 74.5232 115.248 74.4565C115.346 74.3898 115.392 74.2379 115.392 74.0005V73.7738ZM115.038 70.6472H115.846L114.991 71.5512H114.486L115.038 70.6472Z" fill="white"/>
<path d="M117.061 71.9583H117.674V72.2917H117.685C117.886 72.0437 118.15 71.9183 118.478 71.9183C118.73 71.9183 118.962 72.0117 119.171 72.1957C119.378 72.3824 119.487 72.6543 119.498 73.0144V75.109H118.885V73.2303C118.885 73.0103 118.827 72.841 118.715 72.7263C118.602 72.609 118.458 72.5503 118.282 72.5503C118.105 72.5503 117.961 72.609 117.847 72.7263C117.731 72.841 117.674 73.0103 117.674 73.2303V75.109H117.061L117.061 71.9583Z" fill="white"/>
<path d="M120.12 71.9583H120.769L121.492 74.165H121.504L122.224 71.9583H122.876L121.563 75.761C121.479 75.9984 121.363 76.1623 121.212 76.253C121.063 76.3397 120.892 76.3837 120.703 76.3837H120.5V75.789H120.679C120.759 75.789 120.833 75.7664 120.901 75.7224C120.969 75.6744 121.019 75.6064 121.045 75.5157L121.212 74.9864L120.12 71.9583Z" fill="white"/>
<path d="M123.5 70.6839H124.113V71.3146H123.5V70.6839ZM123.5 71.9586H124.113V75.1093H123.5V71.9586Z" fill="white"/>
<path d="M126.84 70.6836H127.489V72.9636H127.501L129.267 70.6836H130.037L128.664 72.4289L130.181 75.1089H129.411L128.243 72.9449L127.489 73.7609V75.1089H126.84V70.6836Z" fill="white"/>
<path d="M130.749 71.9583H131.363V73.837C131.363 74.049 131.42 74.2157 131.536 74.3344C131.649 74.4544 131.795 74.5144 131.971 74.5144C132.147 74.5144 132.291 74.4544 132.404 74.3344C132.517 74.2157 132.573 74.049 132.573 73.837V71.9583H133.187V75.109H132.573V74.7717H132.563C132.361 75.021 132.097 75.145 131.772 75.145C131.52 75.141 131.291 75.0464 131.088 74.8597C130.867 74.6797 130.753 74.4104 130.749 74.0544L130.749 71.9583Z" fill="white"/>
<path d="M134.287 70.9991H134.9V71.9578H135.346V72.4445H134.9V74.2805C134.895 74.4405 134.968 74.5178 135.118 74.5138H135.346V75.1085H135.026C134.811 75.1085 134.635 75.0405 134.498 74.9018C134.356 74.7725 134.287 74.5805 134.287 74.3338V72.4445H133.979V71.9578H134.287L134.287 70.9991Z" fill="white"/>
<path d="M137.741 74.8294H137.73C137.673 74.9374 137.585 75.0161 137.465 75.0667C137.348 75.1201 137.185 75.1454 136.977 75.1454C136.636 75.1414 136.373 75.0481 136.19 74.8654C135.996 74.6881 135.898 74.4614 135.898 74.1828C135.898 73.9174 135.984 73.6987 136.152 73.5241C136.321 73.3468 136.568 73.2561 136.893 73.2507H137.741V72.9188C137.745 72.6414 137.537 72.5041 137.116 72.5134C136.962 72.5134 136.842 72.5308 136.754 72.5628C136.662 72.6001 136.589 72.6654 136.536 72.7588L136.054 72.3774C136.288 72.0628 136.632 71.9108 137.085 71.9188C137.469 71.9148 137.776 71.9908 138.005 72.1441C138.234 72.3014 138.349 72.5734 138.354 72.9574V75.1094H137.741L137.741 74.8294ZM137.741 73.7734H137.005C136.649 73.7814 136.47 73.9081 136.476 74.1534C136.476 74.2601 136.521 74.3521 136.613 74.4254C136.701 74.5094 136.849 74.5507 137.052 74.5507C137.31 74.5548 137.49 74.5227 137.597 74.4561C137.694 74.3894 137.741 74.2374 137.741 74.0014V73.7734Z" fill="white"/>
<path d="M139.445 70.9991H140.059V71.9578H140.504V72.4445H140.059V74.2805C140.053 74.4405 140.127 74.5178 140.276 74.5138H140.504V75.1085H140.184C139.969 75.1085 139.793 75.0405 139.656 74.9018C139.515 74.7725 139.445 74.5805 139.445 74.3338V72.4445H139.137V71.9578H139.445L139.445 70.9991Z" fill="white"/>
<path d="M141.145 73.5312C141.145 73.1978 141.172 72.9432 141.225 72.7645C141.28 72.5898 141.364 72.4418 141.477 72.3245C141.563 72.2192 141.679 72.1258 141.831 72.0432C141.98 71.9645 142.171 71.9231 142.405 71.9192C142.644 71.9231 142.84 71.9645 142.989 72.0432C143.136 72.1272 143.251 72.2205 143.331 72.3258C143.452 72.4459 143.537 72.5912 143.588 72.7658C143.637 72.9432 143.661 73.1979 143.661 73.5312C143.661 73.8632 143.637 74.1152 143.588 74.2899C143.537 74.4645 143.451 74.6138 143.329 74.7418C143.289 74.7885 143.243 74.8338 143.185 74.8778C143.135 74.9285 143.069 74.9725 142.989 75.0085C142.839 75.0952 142.644 75.1405 142.403 75.1459C142.171 75.1405 141.98 75.0952 141.831 75.0085C141.679 74.9298 141.563 74.8405 141.477 74.7418C141.364 74.6138 141.28 74.4645 141.225 74.2899C141.172 74.1152 141.145 73.8632 141.145 73.5312ZM143.048 73.5365C143.048 73.3125 143.039 73.1472 143.02 73.0432C143 72.9432 142.96 72.8565 142.899 72.7805C142.853 72.7112 142.787 72.6552 142.697 72.6138C142.615 72.5712 142.516 72.5498 142.403 72.5498C142.3 72.5498 142.203 72.5712 142.115 72.6138C142.029 72.6552 141.961 72.7112 141.908 72.7805C141.856 72.8565 141.817 72.9432 141.793 73.0432C141.771 73.1471 141.759 73.3085 141.759 73.5312C141.759 73.7485 141.771 73.9098 141.793 74.0112C141.817 74.1152 141.856 74.2072 141.908 74.2858C141.961 74.3472 142.029 74.4005 142.115 74.4471C142.203 74.4912 142.3 74.5138 142.403 74.5138C142.516 74.5138 142.615 74.4912 142.697 74.4471C142.787 74.4005 142.853 74.3472 142.899 74.2858C142.96 74.2072 143 74.1152 143.02 74.0112C143.039 73.9098 143.048 73.7525 143.048 73.5365ZM142.541 70.6472H143.349L142.495 71.5512H141.989L142.541 70.6472Z" fill="white"/>
<path d="M144.567 70.6836H145.181V73.4369H145.193L146.366 71.9583H147.102L146.049 73.1876L147.246 75.1089H146.475L145.663 73.6369L145.181 74.2009V75.1089H144.567V70.6836Z" fill="white"/>
<path d="M147.802 73.5306C147.802 73.1986 147.83 72.9439 147.882 72.7639C147.937 72.5893 148.021 72.4426 148.134 72.3239C148.22 72.2199 148.337 72.1253 148.489 72.0439C148.637 71.9639 148.829 71.9239 149.062 71.9186C149.303 71.924 149.498 71.964 149.646 72.0439C149.793 72.1266 149.908 72.2213 149.988 72.3253C150.109 72.4453 150.194 72.5906 150.246 72.7653C150.295 72.9439 150.318 73.1986 150.318 73.5306C150.318 73.8626 150.295 74.1146 150.246 74.2893C150.194 74.464 150.108 74.6146 149.986 74.7413C149.946 74.7893 149.9 74.8346 149.842 74.8786C149.792 74.928 149.726 74.9719 149.647 75.0093C149.496 75.0946 149.302 75.1413 149.061 75.1453C148.829 75.1413 148.637 75.0946 148.489 75.0093C148.337 74.9293 148.22 74.8399 148.134 74.7413C148.021 74.6146 147.937 74.464 147.882 74.2893C147.83 74.1146 147.802 73.8626 147.802 73.5306ZM148.209 70.7986H148.858V71.4666H148.209V70.7986ZM149.705 73.5373C149.705 73.3119 149.697 73.1466 149.677 73.0439C149.657 72.9439 149.617 72.8573 149.556 72.7812C149.512 72.7106 149.445 72.6546 149.354 72.6133C149.272 72.5719 149.173 72.5506 149.061 72.5506C148.957 72.5506 148.86 72.5719 148.772 72.6133C148.688 72.6546 148.618 72.7106 148.566 72.7812C148.513 72.8573 148.474 72.9439 148.45 73.0439C148.428 73.1466 148.416 73.3093 148.416 73.5306C148.416 73.7493 148.428 73.9106 148.45 74.0119C148.474 74.1146 148.513 74.2079 148.566 74.2866C148.618 74.3466 148.688 74.3999 148.772 74.4466C148.86 74.4906 148.957 74.5146 149.061 74.5146C149.173 74.5146 149.272 74.4906 149.354 74.4466C149.445 74.3999 149.512 74.3466 149.556 74.2866C149.617 74.2079 149.657 74.1146 149.677 74.0119C149.697 73.9106 149.705 73.752 149.705 73.5373ZM149.305 70.7986H149.954V71.4666H149.305V70.7986Z" fill="white"/>
<path d="M151.025 74.6081L152.553 72.5175H151.059V71.9588H153.301V72.4628L151.723 74.5135H153.301V75.1094H151.025V74.6081Z" fill="white"/>
<path d="M154.144 71.9579H154.758V72.2859C154.962 72.0513 155.224 71.9299 155.546 71.9193C155.919 71.9299 156.194 72.0659 156.364 72.3313C156.448 72.4299 156.506 72.5606 156.538 72.7233C156.567 72.8819 156.582 73.1539 156.582 73.5366C156.582 73.9086 156.567 74.1753 156.538 74.3379C156.506 74.5006 156.448 74.6326 156.364 74.7353C156.28 74.8566 156.17 74.9539 156.032 75.0273C155.898 75.1006 155.735 75.1406 155.546 75.146C155.39 75.146 155.248 75.1099 155.126 75.0393C154.991 74.9753 154.87 74.8873 154.758 74.7739V76.3832H154.144V71.9579ZM155.36 74.5139C155.506 74.5139 155.62 74.4846 155.704 74.4286C155.79 74.3699 155.848 74.2953 155.884 74.2046C155.923 74.1086 155.95 74.0019 155.964 73.8873C155.967 73.7739 155.968 73.6566 155.968 73.5366C155.968 73.4112 155.967 73.2873 155.964 73.1673C155.95 73.0473 155.923 72.9433 155.884 72.8513C155.848 72.7566 155.79 72.6806 155.704 72.6259C155.62 72.5766 155.506 72.5499 155.36 72.5499C155.224 72.5499 155.115 72.5792 155.034 72.6379C154.951 72.6979 154.888 72.7753 154.848 72.8699C154.812 72.9646 154.787 73.0686 154.776 73.1806C154.764 73.2979 154.758 73.4166 154.758 73.5366C154.758 73.6486 154.764 73.7593 154.776 73.8726C154.787 73.9886 154.812 74.0966 154.848 74.1913C154.888 74.2859 154.951 74.3632 155.034 74.4232C155.115 74.4832 155.224 74.5139 155.36 74.5139Z" fill="white"/>
<path d="M157.382 73.53C157.382 73.198 157.408 72.9433 157.461 72.7647C157.516 72.59 157.601 72.442 157.714 72.3246C157.798 72.2193 157.916 72.1246 158.066 72.0433C158.216 71.9646 158.406 71.9233 158.64 71.9193C158.881 71.9233 159.076 71.9646 159.226 72.0433C159.372 72.1273 159.485 72.2206 159.566 72.326C159.688 72.446 159.773 72.5913 159.824 72.766C159.872 72.9433 159.898 73.198 159.898 73.53C159.898 73.8633 159.872 74.1153 159.824 74.29C159.773 74.4633 159.687 74.614 159.566 74.742C159.526 74.7887 159.478 74.834 159.421 74.878C159.37 74.9286 159.305 74.9727 159.224 75.0086C159.076 75.0953 158.881 75.1406 158.64 75.1447C158.406 75.1406 158.216 75.0953 158.066 75.0086C157.916 74.93 157.798 74.8407 157.714 74.742C157.601 74.614 157.516 74.4633 157.461 74.29C157.408 74.1153 157.382 73.8633 157.382 73.53ZM159.285 73.5366C159.285 73.3126 159.274 73.1473 159.256 73.0433C159.237 72.9433 159.196 72.8567 159.134 72.7806C159.089 72.7113 159.022 72.6553 158.934 72.614C158.849 72.5713 158.752 72.55 158.64 72.55C158.536 72.55 158.44 72.5713 158.35 72.614C158.266 72.6553 158.198 72.7113 158.145 72.7806C158.092 72.8567 158.053 72.9433 158.03 73.0433C158.005 73.1473 157.994 73.3086 157.994 73.53C157.994 73.7487 158.005 73.91 158.03 74.0113C158.053 74.1153 158.092 74.2073 158.145 74.286C158.198 74.3473 158.266 74.4006 158.35 74.4473C158.44 74.4913 158.536 74.5139 158.64 74.5139C158.752 74.5139 158.849 74.4913 158.934 74.4473C159.022 74.4006 159.089 74.3473 159.134 74.286C159.196 74.2073 159.237 74.1153 159.256 74.0113C159.274 73.91 159.285 73.7527 159.285 73.5366Z" fill="white"/>
<path d="M160.802 71.9583H161.416V72.2917H161.428C161.629 72.0437 161.893 71.9183 162.22 71.9183C162.473 71.9183 162.704 72.0117 162.913 72.1957C163.121 72.3824 163.23 72.6543 163.24 73.0144V75.109H162.626V73.2303C162.626 73.0103 162.57 72.841 162.457 72.7263C162.344 72.609 162.2 72.5503 162.024 72.5503C161.848 72.5503 161.702 72.609 161.589 72.7263C161.473 72.841 161.416 73.0103 161.416 73.2303V75.109H160.802V71.9583Z" fill="white"/>
<path d="M164.34 70.9991H164.953V71.9578H165.399V72.4445H164.953V74.2805C164.948 74.4405 165.021 74.5178 165.171 74.5138H165.399V75.1085H165.079C164.864 75.1085 164.688 75.0405 164.551 74.9018C164.409 74.7725 164.34 74.5805 164.34 74.3338V72.4445H164.032V71.9578H164.34L164.34 70.9991Z" fill="white"/>
<path d="M25.3287 23.1492C26.5887 23.1492 27.81 23.1466 29.0327 23.1572C29.1074 23.1586 29.2207 23.2626 29.2447 23.3412C29.2941 23.4945 29.3114 23.6652 29.3114 23.8279C29.318 28.5732 29.2927 33.3279 29.3394 38.0719C29.3567 39.8052 29.886 41.3772 31.3634 42.4812C32.1914 43.0985 33.1314 43.4479 34.15 43.5439C34.9554 43.6199 35.7754 43.6892 36.5767 43.6239C38.0074 43.5092 39.4074 43.2279 40.5314 42.2279C41.3687 41.4825 41.8367 40.5279 42.0327 39.4399C42.11 39.0159 42.1607 38.5812 42.1634 38.1519C42.186 33.5599 42.198 28.9586 42.2127 24.3679C42.214 23.9719 42.2127 23.5746 42.2127 23.1492H45.6673C46.1193 23.1492 46.174 23.2053 46.174 23.6732V24.8253C46.1727 29.2306 46.1873 33.6466 46.1607 38.0532C46.154 39.2585 46.0713 40.4719 45.686 41.6359C44.9513 43.8465 43.49 45.3972 41.3647 46.3426C40.4127 46.7665 39.4034 46.9692 38.3874 47.1692C37.122 47.4186 35.8514 47.3546 34.582 47.3212C32.3594 47.2652 30.29 46.6852 28.4674 45.3799C27.2794 44.5292 26.4474 43.3905 25.9167 42.0319C25.5274 41.0306 25.3047 40.0065 25.3087 38.9172C25.3234 34.7946 25.3007 30.6612 25.2954 26.5373C25.2941 25.4759 25.3061 24.4146 25.3127 23.3533C25.3127 23.2986 25.3207 23.2439 25.3287 23.1492Z" fill="white"/>
<path d="M17.219 23.1492V36.8039H17.2257V47.0506H21.315V23.1492H17.219Z" fill="white"/>
<path d="M0.000488281 23.1623V47.0236H4.17914V36.8036H15.3778V33.1183H4.16715V23.1623H0.000488281Z" fill="white"/>
<path d="M45.2566 54.808C40.1526 54.8053 35.0486 54.804 29.9433 54.8014C29.81 54.8014 29.6687 54.7627 29.67 54.9907C29.6753 56.9813 29.6727 58.972 29.6727 61H44.442V64.836H29.6673V71.036C29.6633 71.068 29.6593 71.1 29.6553 71.1306C29.7513 71.1733 29.846 71.2533 29.942 71.2547C34.1207 71.2613 38.2993 71.2613 42.4766 71.2626C43.562 71.2626 44.646 71.2653 45.7313 71.268H46.058V74.9973H25.5433V51.128H45.5593C45.5593 51.5654 45.558 52.0053 45.5606 52.4454C45.5646 53.14 45.57 53.8347 45.5806 54.5293C45.582 54.7053 45.582 54.8587 45.3353 54.8093C45.3086 54.8093 45.282 54.808 45.2566 54.808Z" fill="white"/>
<path d="M71.3232 75.0202V51.1176H67.4126C67.4086 51.2136 67.4019 51.2909 67.4019 51.3669C67.3952 55.5802 67.3886 59.8242 67.3846 64.0375C67.3832 65.1669 67.3966 66.2975 67.3966 67.4269C67.3966 67.5522 67.3539 67.6789 67.3192 67.8709C67.2219 67.7669 67.1885 67.7375 67.1619 67.7029C64.4499 64.0895 61.7379 60.4775 59.0272 56.8629C57.6926 55.0842 56.3539 53.3069 55.0312 51.5176C54.8139 51.2242 54.5819 51.1109 54.2126 51.1176C52.9432 51.1429 51.6752 51.1269 50.4059 51.1269H50.0206C50.0099 51.1629 50.0072 51.1962 50.0032 51.2309H49.9952V75.0242H53.5846C53.6112 75.0242 53.6366 75.0242 53.6619 75.0229H53.9779V56.8629C54.7952 57.9602 55.6112 59.0602 56.4299 60.1576C59.2525 63.9402 62.0765 67.7229 64.8992 71.5055C65.6766 72.5455 66.4499 73.5895 67.2312 74.6255C67.3686 74.8082 67.4739 75.0268 67.7739 75.0242C68.9512 75.0135 70.1272 75.0202 71.3232 75.0202Z" fill="white"/>
<path d="M71.3232 47.0194V23.1168H67.4126C67.4086 23.2127 67.4019 23.2901 67.4019 23.3661C67.3952 27.5794 67.3886 31.8234 67.3846 36.0367C67.3832 37.1661 67.3966 38.2967 67.3966 39.4261C67.3966 39.5514 67.3539 39.6781 67.3192 39.87C67.2219 39.7661 67.1885 39.7367 67.1619 39.7021C64.4499 36.0887 61.7379 32.4767 59.0272 28.8621C57.6926 27.0834 56.3539 25.3061 55.0312 23.5167C54.8139 23.2234 54.5819 23.1101 54.2126 23.1168C52.9432 23.1421 51.6752 23.1261 50.4059 23.1261H50.0206C50.0099 23.1621 50.0072 23.1954 50.0032 23.2301H49.9952V47.0234H53.5846C53.6112 47.0234 53.6366 47.0234 53.6619 47.022H53.9779V28.8621C54.7952 29.9594 55.6112 31.0594 56.4299 32.1567C59.2525 35.9394 62.0765 39.722 64.8992 43.5047C65.6766 44.5447 66.4499 45.5887 67.2312 46.6247C67.3686 46.8074 67.4739 47.026 67.7739 47.0234C68.9512 47.0127 70.1272 47.0194 71.3232 47.0194Z" fill="white"/>
<path d="M20.4298 61.7512C21.4191 58.7832 21.0458 55.8445 19.8431 54.0285C18.6405 52.2139 16.4738 51.1405 14.2511 51.1405H8.34448L8.09114 51.1179C5.48715 51.1152 3.17116 51.1205 0.567154 51.1179H0.000488281V75.0245C0.0698215 75.0285 0.124488 75.0352 0.179155 75.0338C1.38715 75.0298 2.59648 75.0125 3.80582 75.0245C4.10848 75.0258 4.18315 74.9378 4.18182 74.6392C4.16982 71.7738 4.17515 68.9072 4.17515 66.0405V65.6965H4.19648V54.8338C4.81915 54.8338 5.42181 54.8352 6.02448 54.8338C8.06448 54.8285 10.1058 54.7845 12.1458 54.8098C12.1471 54.8098 12.1485 54.8085 12.1485 54.8085C12.4845 54.8085 13.1071 54.7965 13.7445 54.8498C13.7938 54.8539 13.8418 54.8578 13.8885 54.8645C14.4591 54.9232 15.0245 55.0392 15.3831 55.2739C16.1738 55.7885 16.7205 56.4258 16.8231 58.2512C16.9258 60.0765 16.3338 60.7538 15.5498 61.3939C14.7658 62.0338 12.8925 61.9898 12.8925 61.9898H12.2365V61.9885C10.1738 61.9952 8.11248 61.9938 6.04981 61.9925V65.6992C7.71781 65.7099 9.38714 65.7219 11.0551 65.7445C11.1645 65.7458 11.3125 65.8299 11.3711 65.9219C11.6205 66.2992 11.8445 66.6952 12.0765 67.0858C13.6511 69.7258 15.2245 72.3659 16.7965 75.0018H21.6058C19.6431 71.8178 17.7071 68.6792 15.8205 65.6165C15.8205 65.6165 19.4405 64.7192 20.4298 61.7512Z" fill="white"/>
<path d="M83.5359 23.1161H83.2506V75.0786H83.5359V23.1161Z" fill="white"/>
</g>
</g>
<path d="M191.969 0V99.5" stroke="#9795B5" stroke-width="0.5"/>
<g clip-path="url(#clip1_2422_5304)">
<path d="M235.217 44.7213C235.759 44.1081 236.609 43.8009 237.482 43.8009C238.073 43.8009 238.309 44.0372 241.66 45.7836L243.572 43.7773C242.32 41.6765 239.914 40.45 237.482 40.45C233.541 40.45 230.378 43.541 230.378 47.3409V51.142C230.378 54.8698 233.541 58.0093 237.482 58.0093C239.914 58.0093 242.32 56.758 243.572 54.6583L241.66 52.652C238.309 54.422 238.073 54.6347 237.482 54.6347C236.609 54.6347 235.759 54.3511 235.217 53.7131C234.697 53.1471 234.697 52.8647 234.697 52.2503V46.1842C234.697 45.5945 234.697 45.2874 235.217 44.7213Z" fill="white"/>
<path d="M245.459 57.5606H257.449V54.1388H249.637V50.7406H256.057V47.3649H249.637V44.2738H257.449V40.8981H245.459V57.5606Z" fill="white"/>
<path d="M269.061 40.8982V51.1423C269.061 51.1559 269.063 51.1694 269.063 51.1829C269.063 51.1975 269.061 51.2098 269.061 51.2245V51.256H269.058C269.02 52.6637 267.869 53.7957 266.45 53.7957C265.007 53.7957 263.838 52.6266 263.838 51.1829C263.838 51.1423 263.843 51.103 263.844 51.0625V40.8982H259.691V51.471C259.691 54.9884 262.712 58.0097 266.441 58.0097C270.194 58.0097 273.214 54.9884 273.214 51.471V40.8982L269.061 40.8982Z" fill="white"/>
<path d="M236.955 24.2501C235.915 24.2501 234.537 24.3604 234.537 24.3604L236.955 31.1849L239.366 24.3637C239.366 24.3637 238.397 24.2501 236.955 24.2501Z" fill="white"/>
<path d="M247.583 26.3871L246.683 32.9754L251.763 28.8053C251.763 28.8053 250.984 28.2179 249.733 27.4966C248.835 26.9768 247.583 26.3871 247.583 26.3871Z" fill="white"/>
<path d="M236.948 67.2913L234.537 74.1113C234.537 74.1113 235.504 74.2261 236.948 74.2261C237.985 74.2261 239.366 74.1147 239.366 74.1147L236.948 67.2913Z" fill="white"/>
<path d="M215.347 36.6598C214.827 37.5601 214.234 38.8091 214.234 38.8091L221.352 40.1278L216.651 34.6288C216.651 34.6288 216.068 35.4108 215.347 36.6598Z" fill="#00A9D5"/>
<path d="M211.969 49.2521C211.969 50.2919 212.081 51.6703 212.081 51.6703L218.904 49.2521L212.083 46.8408C212.083 46.8408 211.969 47.8096 211.969 49.2521Z" fill="white"/>
<path d="M215.291 61.7011C215.811 62.6013 216.595 63.74 216.595 63.74L221.296 58.2343L214.184 59.5553C214.184 59.5553 214.57 60.4521 215.291 61.7011Z" fill="white"/>
<path d="M224.561 70.9467C225.461 71.4677 226.71 72.0596 226.71 72.0596L228.028 64.9414L222.53 69.6426C222.53 69.6426 223.312 70.2255 224.561 70.9467Z" fill="white"/>
<path d="M249.718 70.7358C250.618 70.216 251.757 69.4317 251.757 69.4317L246.251 64.7305L247.572 71.8431C247.572 71.8431 248.469 71.4571 249.718 70.7358Z" fill="white"/>
<path d="M224.735 27.3898C223.834 27.9097 222.696 28.6951 222.696 28.6951L228.203 33.3952L226.88 26.2826C226.88 26.2826 225.984 26.6685 224.735 27.3898Z" fill="white"/>
</g>
<defs>
<clipPath id="clip0_2422_5304">
<rect width="171.969" height="53.2679" fill="white" transform="translate(0 23.1161)"/>
</clipPath>
<clipPath id="clip1_2422_5304">
<rect width="61" height="51" fill="white" transform="translate(211.969 24.25)"/>
</clipPath>
</defs>
</svg>
