<svg width="273" height="100" viewBox="0 0 273 100" fill="none" xmlns="http://www.w3.org/2000/svg">
<g clip-path="url(#clip0_2422_4576)">
<mask id="mask0_2422_4576" style="mask-type:luminance" maskUnits="userSpaceOnUse" x="0" y="23" width="172" height="54">
<path d="M171.969 23.116H0V76.3839H171.969V23.116Z" fill="white"/>
</mask>
<g mask="url(#mask0_2422_4576)">
<path d="M152.172 37.2118L149.093 34.1331L148.478 33.5185C149.708 32.8811 150.662 31.7905 151.125 30.4692C151.189 30.2891 151.244 30.1065 151.288 29.9185C151.321 29.7758 151.349 29.6292 151.372 29.4825C151.413 29.2158 151.438 28.9438 151.438 28.6652C151.438 27.1731 150.836 25.8238 149.862 24.8372C149.46 24.4278 148.996 24.0811 148.481 23.8132C147.729 23.4225 146.876 23.1985 145.972 23.1985H140.529C140.414 23.1985 140.312 23.2411 140.232 23.3118C140.214 23.3345 140.198 23.3598 140.186 23.3878C140.138 23.5025 140.165 23.6358 140.254 23.7251L141.552 25.0225L142.002 25.4731L143.141 26.6118C143.333 26.8038 143.593 26.9118 143.865 26.9118H145.972C146.428 26.9118 146.842 27.0878 147.154 27.3745C147.505 27.6958 147.725 28.1544 147.725 28.6651C147.725 28.8798 147.678 29.0865 147.604 29.2771C147.442 29.6931 147.128 30.0158 146.744 30.2144C146.481 30.3504 146.185 30.4304 145.88 30.4371C145.16 30.4504 144.246 30.4678 144.141 30.4678H140.813C140.689 30.4678 140.576 30.5424 140.528 30.6585C140.48 30.7745 140.506 30.9065 140.594 30.9958L141.893 32.2944L142.342 32.7438L143.732 34.1331L147.249 37.6491C147.306 37.7078 147.385 37.7398 147.468 37.7398H151.953C152.078 37.7398 152.19 37.6651 152.238 37.5491C152.286 37.4331 152.26 37.2998 152.172 37.2118Z" fill="black"/>
<path d="M129.002 23.3977C128.951 23.2764 128.834 23.1978 128.703 23.1978H124.019C123.934 23.1978 123.852 23.2324 123.791 23.2924L116.843 30.2404C116.783 30.3017 116.748 30.3831 116.748 30.4698C116.748 30.5551 116.783 30.6378 116.843 30.6977L123.791 37.6457C123.852 37.7057 123.934 37.7404 124.019 37.7404H128.703C128.834 37.7404 128.951 37.6618 129.002 37.5404C129.052 37.4204 129.024 37.2804 128.931 37.1884L122.212 30.4698L128.931 23.7498C129.024 23.6578 129.052 23.5178 129.002 23.3977Z" fill="black"/>
<path d="M152.196 45.2732C152.145 45.1519 152.028 45.0732 151.897 45.0732H147.213C147.128 45.0732 147.045 45.1079 146.985 45.1679L140.037 52.1159C139.912 52.2426 139.912 52.4466 140.037 52.5732L146.985 59.5212C147.045 59.5812 147.128 59.6159 147.213 59.6159H151.897C152.028 59.6159 152.145 59.5372 152.196 59.4159C152.245 59.2959 152.218 59.1559 152.125 59.0639L145.406 52.3452L152.125 45.6252C152.218 45.5332 152.245 45.3946 152.196 45.2732Z" fill="black"/>
<path d="M128.43 45.074H118.735C118.557 45.074 118.413 45.218 118.413 45.3966V59.2926C118.413 59.4713 118.557 59.6153 118.735 59.6153H122.047C122.226 59.6153 122.37 59.4713 122.37 59.2926V49.0313H128.43C128.609 49.0313 128.753 48.8873 128.753 48.7087V45.3967C128.753 45.2193 128.609 45.074 128.43 45.074Z" fill="black"/>
<path d="M112.079 23.1162C111.855 23.1162 111.674 23.2976 111.674 23.5216V37.4175C111.674 37.6402 111.855 37.8216 112.079 37.8216C112.303 37.8216 112.484 37.6402 112.484 37.4175V23.5216C112.484 23.2976 112.303 23.1162 112.079 23.1162Z" fill="black"/>
<path d="M135.294 44.9917C135.07 44.9917 134.889 45.1731 134.889 45.3971V59.293C134.889 59.5157 135.07 59.6971 135.294 59.6971C135.518 59.6971 135.7 59.5157 135.7 59.293V45.3971C135.7 45.1731 135.518 44.9917 135.294 44.9917Z" fill="black"/>
<path d="M112.079 44.9917C111.855 44.9917 111.674 45.1731 111.674 45.3971V48.7091C111.674 48.9317 111.855 49.1144 112.079 49.1144C112.303 49.1144 112.484 48.9317 112.484 48.7091V45.3971C112.484 45.1731 112.303 44.9917 112.079 44.9917Z" fill="black"/>
<path d="M135.294 23.1162C135.07 23.1162 134.889 23.2976 134.889 23.5216V37.4175C134.889 37.6402 135.07 37.8216 135.294 37.8216C135.518 37.8216 135.7 37.6402 135.7 37.4175V23.5216C135.7 23.2976 135.518 23.1162 135.294 23.1162Z" fill="black"/>
<path d="M95.5303 63.2244H96.1796V65.5044H96.1916L97.9569 63.2244H98.7276L97.3543 64.9697L98.8716 67.6497H98.1009L96.9329 65.4857L96.1796 66.3017V67.6497H95.5303V63.2244Z" fill="black"/>
<path d="M99.3999 66.0719C99.3999 65.7385 99.4279 65.4838 99.4812 65.3052C99.5359 65.1305 99.6186 64.9838 99.7319 64.8652C99.8172 64.7598 99.9346 64.6665 100.087 64.5839C100.235 64.5052 100.427 64.4639 100.66 64.4598C100.9 64.4639 101.096 64.5052 101.244 64.5839C101.392 64.6678 101.505 64.7612 101.585 64.8665C101.707 64.9865 101.792 65.1318 101.844 65.3065C101.892 65.4839 101.916 65.7385 101.916 66.0719C101.916 66.4039 101.892 66.6559 101.844 66.8305C101.792 67.0052 101.705 67.1545 101.584 67.2825C101.545 67.3292 101.497 67.3745 101.44 67.4185C101.389 67.4692 101.324 67.5132 101.244 67.5492C101.093 67.6359 100.9 67.6812 100.659 67.6865C100.427 67.6812 100.235 67.6359 100.087 67.5492C99.9346 67.4705 99.8172 67.3812 99.7319 67.2825C99.6186 67.1545 99.5359 67.0052 99.4812 66.8305C99.4279 66.6559 99.3999 66.4038 99.3999 66.0719ZM99.8066 63.3398H100.456V64.0079H99.8066V63.3398ZM101.304 66.0772C101.304 65.8532 101.295 65.6879 101.275 65.5839C101.255 65.4838 101.216 65.3972 101.153 65.3212C101.109 65.2519 101.043 65.1958 100.953 65.1545C100.869 65.1119 100.771 65.0905 100.659 65.0905C100.555 65.0905 100.459 65.1119 100.371 65.1545C100.285 65.1958 100.217 65.2519 100.164 65.3212C100.111 65.3972 100.072 65.4838 100.048 65.5839C100.025 65.6879 100.013 65.8505 100.013 66.0719C100.013 66.2905 100.025 66.4505 100.048 66.5532C100.072 66.6558 100.111 66.7478 100.164 66.8278C100.217 66.8878 100.285 66.9412 100.371 66.9878C100.459 67.0319 100.555 67.0545 100.659 67.0545C100.771 67.0545 100.869 67.0319 100.953 66.9878C101.043 66.9412 101.109 66.8878 101.153 66.8278C101.216 66.7478 101.255 66.6558 101.275 66.5532C101.295 66.4505 101.304 66.2932 101.304 66.0772ZM100.903 63.3398H101.552V64.0079H100.903V63.3398Z" fill="black"/>
<path d="M102.622 67.1488L104.15 65.0582H102.657V64.4995H104.898V65.0035L103.321 67.0542H104.898V67.6502H102.622V67.1488Z" fill="black"/>
<path d="M107.457 67.3202C107.255 67.5562 106.994 67.6789 106.671 67.6855C106.473 67.6815 106.309 67.6389 106.178 67.5562C106.039 67.4762 105.935 67.3922 105.862 67.3002C105.782 67.1975 105.723 67.0695 105.689 66.9215C105.653 66.7722 105.633 66.4922 105.633 66.0762C105.633 65.6522 105.653 65.3669 105.689 65.2175C105.723 65.0682 105.782 64.9442 105.862 64.8442C105.935 64.7455 106.039 64.6562 106.178 64.5775C106.309 64.5042 106.473 64.4642 106.671 64.4602C106.974 64.4602 107.237 64.5842 107.457 64.8335V64.4989H108.07V67.5735C108.062 68.0469 107.93 68.3949 107.674 68.6175C107.417 68.8469 107.106 68.9615 106.747 68.9615C106.333 68.9535 105.981 68.7775 105.689 68.4349L106.166 68.0429C106.243 68.1189 106.334 68.1829 106.435 68.2362C106.539 68.2949 106.646 68.3269 106.759 68.3295C106.969 68.3295 107.137 68.2709 107.265 68.1509C107.389 68.0282 107.454 67.8589 107.457 67.6442V67.3202ZM106.246 66.0775C106.246 66.3189 106.254 66.4855 106.27 66.5762C106.283 66.6722 106.315 66.7508 106.366 66.8149C106.409 66.8708 106.47 66.9228 106.555 66.9695C106.634 67.0255 106.734 67.0549 106.854 67.0549C106.974 67.0549 107.074 67.0256 107.155 66.9695C107.235 66.9229 107.297 66.8708 107.337 66.8149C107.389 66.7509 107.422 66.6722 107.441 66.5762C107.453 66.4855 107.457 66.3189 107.457 66.0775C107.457 65.8322 107.453 65.6615 107.441 65.5656C107.422 65.4709 107.389 65.3935 107.337 65.3335C107.297 65.2775 107.235 65.2215 107.155 65.1669C107.074 65.1202 106.974 65.0936 106.854 65.0909C106.734 65.0935 106.634 65.1202 106.555 65.1669C106.47 65.2215 106.409 65.2775 106.366 65.3335C106.315 65.3935 106.283 65.4709 106.27 65.5656C106.254 65.6615 106.246 65.8322 106.246 66.0775Z" fill="black"/>
<path d="M110.734 67.3702H110.722C110.666 67.4782 110.578 67.5568 110.458 67.6075C110.339 67.6609 110.176 67.6862 109.97 67.6862C109.628 67.6822 109.366 67.5889 109.183 67.4062C108.988 67.2288 108.891 67.0022 108.891 66.7235C108.891 66.4582 108.975 66.2395 109.143 66.0649C109.312 65.8875 109.559 65.7969 109.884 65.7915H110.734V65.4595C110.738 65.1822 110.528 65.0449 110.107 65.0542C109.955 65.0542 109.834 65.0715 109.746 65.1035C109.654 65.1409 109.582 65.2062 109.528 65.2995L109.046 64.9182C109.28 64.6035 109.623 64.4515 110.076 64.4595C110.46 64.4555 110.767 64.5316 110.996 64.6849C111.226 64.8422 111.342 65.1142 111.347 65.4982V67.6502H110.734L110.734 67.3702ZM110.734 66.3142H109.998C109.639 66.3222 109.463 66.4488 109.468 66.6942C109.468 66.8009 109.514 66.8929 109.606 66.9662C109.694 67.0502 109.84 67.0915 110.044 67.0915C110.302 67.0955 110.483 67.0635 110.59 66.9969C110.686 66.9302 110.734 66.7782 110.734 66.5422V66.3142Z" fill="black"/>
<path d="M112.2 67.1488L113.729 65.0582H112.236V64.4995H114.476V65.0035L112.898 67.0542H114.476V67.6502H112.2V67.1488Z" fill="black"/>
<path d="M117.146 67.3204C116.943 67.555 116.679 67.679 116.355 67.6857C116.171 67.6817 116.014 67.6417 115.883 67.5684C115.744 67.495 115.631 67.3977 115.539 67.2764C115.455 67.1764 115.399 67.0431 115.371 66.8724C115.338 66.7097 115.322 66.443 115.322 66.0697C115.322 65.6924 115.338 65.4217 115.371 65.2631C115.399 65.1004 115.455 64.9697 115.539 64.8711C115.711 64.6071 115.983 64.4697 116.355 64.4604C116.512 64.4604 116.656 64.4937 116.791 64.5604C116.914 64.6297 117.031 64.7204 117.146 64.8311V63.2244H117.759V67.6497H117.146L117.146 67.3204ZM116.543 65.091C116.398 65.091 116.287 65.1164 116.211 65.167C116.126 65.2217 116.063 65.2977 116.026 65.391C115.987 65.4871 115.963 65.5924 115.951 65.703C115.939 65.823 115.935 65.9457 115.935 66.071C115.935 66.191 115.939 66.3084 115.951 66.4217C115.963 66.5417 115.987 66.6497 116.026 66.7457C116.063 66.8364 116.126 66.911 116.211 66.9697C116.287 67.0257 116.398 67.0551 116.543 67.0551C116.687 67.0551 116.803 67.0244 116.886 66.9644C116.971 66.9044 117.028 66.827 117.06 66.731C117.1 66.6377 117.126 66.5297 117.139 66.4124C117.144 66.2964 117.146 66.183 117.146 66.0711C117.146 65.9497 117.144 65.8337 117.139 65.7204C117.126 65.6097 117.1 65.5057 117.06 65.4111C117.028 65.3151 116.971 65.2377 116.886 65.1791C116.803 65.1204 116.687 65.091 116.543 65.091Z" fill="black"/>
<path d="M120.311 67.3702H120.301C120.243 67.4782 120.155 67.5568 120.035 67.6075C119.918 67.6609 119.755 67.6862 119.547 67.6862C119.206 67.6822 118.943 67.5889 118.761 67.4062C118.566 67.2288 118.469 67.0022 118.469 66.7235C118.469 66.4582 118.554 66.2395 118.722 66.0649C118.891 65.8875 119.138 65.7969 119.463 65.7915H120.311V65.4595C120.315 65.1822 120.107 65.0449 119.686 65.0542C119.533 65.0542 119.413 65.0715 119.325 65.1035C119.233 65.1409 119.159 65.2062 119.106 65.2995L118.625 64.9182C118.858 64.6035 119.202 64.4515 119.655 64.4595C120.039 64.4555 120.346 64.5316 120.575 64.6849C120.805 64.8422 120.919 65.1142 120.925 65.4982V67.6502H120.311L120.311 67.3702ZM120.311 66.3142H119.575C119.219 66.3222 119.041 66.4488 119.046 66.6942C119.046 66.8009 119.091 66.8929 119.183 66.9662C119.271 67.0502 119.419 67.0915 119.622 67.0915C119.881 67.0955 120.061 67.0635 120.167 66.9969C120.265 66.9302 120.311 66.7782 120.311 66.5422V66.3142Z" fill="black"/>
<path d="M122.069 66.6877C122.318 66.9557 122.639 67.0917 123.035 67.0917C123.211 67.0917 123.355 67.0571 123.467 66.9851C123.581 66.9157 123.637 66.8157 123.637 66.6877C123.637 66.5757 123.603 66.4971 123.537 66.4504C123.467 66.4037 123.375 66.3797 123.262 66.3757L122.719 66.3264C122.463 66.3024 122.254 66.2131 122.093 66.0597C121.927 65.9091 121.845 65.6997 121.839 65.4317C121.845 65.1077 121.955 64.8651 122.171 64.7024C122.385 64.5397 122.653 64.4597 122.978 64.4597C123.119 64.4597 123.246 64.4691 123.357 64.4877C123.47 64.5064 123.574 64.5357 123.673 64.5717C123.861 64.6517 124.03 64.757 124.178 64.8904L123.799 65.349C123.681 65.2611 123.555 65.1877 123.423 65.1304C123.295 65.081 123.145 65.0544 122.977 65.0544C122.783 65.0544 122.65 65.0891 122.573 65.161C122.493 65.2317 122.453 65.3237 122.453 65.4344C122.449 65.505 122.478 65.5677 122.543 65.6197C122.603 65.6784 122.706 65.717 122.855 65.7317L123.362 65.7717C123.681 65.7957 123.91 65.8957 124.053 66.0704C124.183 66.2397 124.25 66.4557 124.25 66.717C124.245 67.0237 124.125 67.2584 123.887 67.4251C123.651 67.5958 123.351 67.6824 122.983 67.6864C122.486 67.6864 122.038 67.4984 121.641 67.1224L122.069 66.6877Z" fill="black"/>
<path d="M126.726 67.3707H126.715C126.658 67.4787 126.57 67.5573 126.45 67.6067C126.334 67.66 126.171 67.6867 125.963 67.6867C125.622 67.6813 125.359 67.5893 125.175 67.4066C124.98 67.2293 124.884 67.0013 124.884 66.724C124.884 66.4587 124.968 66.24 125.138 66.0653C125.306 65.888 125.554 65.7973 125.878 65.792H126.726V65.46C126.731 65.1827 126.523 65.0453 126.1 65.0547C125.947 65.0547 125.827 65.072 125.739 65.1027C125.647 65.1413 125.574 65.2067 125.522 65.2987L125.04 64.9187C125.272 64.604 125.616 64.452 126.071 64.46C126.455 64.4547 126.762 64.5307 126.99 64.684C127.219 64.8427 127.335 65.1133 127.339 65.4974V67.6493H126.726L126.726 67.3707ZM126.726 66.3146H125.99C125.634 66.3213 125.456 66.4493 125.46 66.6934C125.46 66.8013 125.506 66.892 125.599 66.9667C125.687 67.0507 125.834 67.0907 126.038 67.0907C126.295 67.096 126.476 67.064 126.582 66.9974C126.679 66.9307 126.726 66.7787 126.726 66.5413V66.3146ZM126.371 63.188H127.178L126.324 64.092H125.819L126.371 63.188Z" fill="black"/>
<path d="M130.109 67.3202C129.907 67.5562 129.645 67.6789 129.322 67.6855C129.125 67.6815 128.959 67.6389 128.829 67.5562C128.691 67.4762 128.587 67.3922 128.514 67.3002C128.434 67.1975 128.375 67.0695 128.341 66.9215C128.303 66.7722 128.285 66.4922 128.285 66.0762C128.285 65.6522 128.303 65.3669 128.341 65.2175C128.375 65.0682 128.434 64.9442 128.514 64.8442C128.587 64.7455 128.691 64.6562 128.829 64.5775C128.959 64.5042 129.125 64.4642 129.322 64.4602C129.625 64.4602 129.887 64.5842 130.109 64.8335V64.4989H130.722V67.5735C130.713 68.0469 130.581 68.3949 130.325 68.6175C130.066 68.8469 129.757 68.9615 129.397 68.9615C128.985 68.9535 128.633 68.7775 128.341 68.4349L128.817 68.0429C128.895 68.1189 128.985 68.1829 129.086 68.2362C129.191 68.2949 129.298 68.3269 129.41 68.3295C129.619 68.3295 129.787 68.2709 129.915 68.1509C130.041 68.0282 130.105 67.8589 130.109 67.6442L130.109 67.3202ZM128.898 66.0775C128.898 66.3189 128.906 66.4855 128.921 66.5762C128.934 66.6722 128.966 66.7508 129.018 66.8149C129.059 66.8708 129.121 66.9228 129.206 66.9695C129.286 67.0255 129.386 67.0549 129.506 67.0549C129.626 67.0549 129.725 67.0256 129.806 66.9695C129.886 66.9229 129.946 66.8708 129.989 66.8149C130.039 66.7509 130.074 66.6722 130.091 66.5762C130.103 66.4855 130.109 66.3189 130.109 66.0775C130.109 65.8322 130.103 65.6615 130.091 65.5656C130.074 65.4709 130.039 65.3935 129.989 65.3335C129.946 65.2775 129.886 65.2215 129.806 65.1669C129.725 65.1202 129.626 65.0936 129.506 65.0909C129.386 65.0935 129.286 65.1202 129.206 65.1669C129.121 65.2215 129.059 65.2775 129.018 65.3335C128.966 65.3935 128.934 65.4709 128.921 65.5656C128.906 65.6615 128.898 65.8322 128.898 66.0775Z" fill="black"/>
<path d="M133.373 65.6118H131.564V66.2425H133.373V65.6118Z" fill="black"/>
<path d="M136.447 66.3132C136.447 66.5665 136.516 66.7572 136.657 66.8892C136.789 67.0225 136.961 67.0892 137.175 67.0892C137.424 67.0892 137.647 66.9879 137.843 66.7839L138.287 67.1746C137.976 67.5198 137.609 67.6892 137.188 67.6852C137.028 67.6852 136.871 67.6599 136.717 67.6119C136.64 67.5866 136.567 67.5492 136.495 67.5052C136.417 67.4679 136.347 67.4185 136.279 67.3626C136.151 67.2465 136.045 67.0826 135.965 66.8719C135.877 66.6692 135.833 66.4052 135.833 66.0826C135.833 65.7706 135.871 65.5119 135.947 65.3052C136.024 65.0946 136.121 64.9292 136.241 64.8079C136.363 64.6839 136.5 64.5946 136.649 64.5399C136.799 64.4852 136.945 64.4585 137.091 64.4585C137.44 64.4625 137.735 64.5812 137.976 64.8132C138.22 65.0505 138.345 65.3759 138.349 65.7905V66.3132L136.447 66.3132ZM137.736 65.7905C137.728 65.5452 137.665 65.3586 137.545 65.2319C137.427 65.1118 137.275 65.0532 137.091 65.0532C136.907 65.0532 136.755 65.1119 136.637 65.2319C136.52 65.3585 136.457 65.5452 136.447 65.7905H137.736ZM137.229 63.1865H138.037L137.183 64.0905H136.677L137.229 63.1865Z" fill="black"/>
<path d="M139.343 66.686C139.593 66.954 139.915 67.09 140.31 67.09C140.487 67.09 140.631 67.0553 140.745 66.9834C140.857 66.914 140.911 66.814 140.911 66.686C140.911 66.574 140.878 66.4954 140.811 66.4487C140.742 66.402 140.651 66.378 140.538 66.374L139.995 66.3247C139.738 66.3007 139.529 66.2114 139.367 66.058C139.203 65.9074 139.119 65.698 139.114 65.43C139.119 65.106 139.23 64.8634 139.446 64.7007C139.659 64.538 139.927 64.458 140.254 64.458C140.395 64.458 140.521 64.4674 140.633 64.486C140.745 64.5047 140.85 64.534 140.947 64.57C141.135 64.65 141.305 64.7553 141.454 64.8887L141.074 65.3473C140.957 65.2594 140.83 65.186 140.701 65.1287C140.57 65.0793 140.421 65.0527 140.253 65.0527C140.059 65.0527 139.925 65.0874 139.849 65.1593C139.769 65.23 139.727 65.322 139.727 65.4327C139.723 65.5033 139.753 65.566 139.818 65.618C139.878 65.6767 139.982 65.7153 140.131 65.73L140.638 65.77C140.955 65.794 141.186 65.894 141.327 66.0687C141.459 66.238 141.525 66.454 141.525 66.7153C141.519 67.022 141.399 67.2567 141.163 67.4233C140.927 67.594 140.626 67.6807 140.259 67.6847C139.762 67.6847 139.313 67.4967 138.915 67.1207L139.343 66.686Z" fill="black"/>
<path d="M144.106 63.2224H145.781C146.138 63.2224 146.428 63.3198 146.655 63.5144C146.927 63.7344 147.068 64.0504 147.08 64.4584C147.072 65.0597 146.796 65.4677 146.252 65.6851L147.244 67.6477H146.473L145.587 65.7571H144.755V67.6477H144.106L144.106 63.2224ZM144.755 65.1624H145.741C145.983 65.1598 146.167 65.0851 146.289 64.9438C146.407 64.8118 146.467 64.6491 146.467 64.4571C146.465 64.2264 146.393 64.0571 146.253 63.9544C146.142 63.8637 145.983 63.8184 145.775 63.8184H144.755V65.1624Z" fill="black"/>
<path d="M148.466 66.3134C148.466 66.5667 148.536 66.7574 148.677 66.8894C148.809 67.0227 148.98 67.0894 149.194 67.0894C149.444 67.0894 149.666 66.988 149.862 66.7827L150.306 67.1747C149.996 67.5187 149.628 67.6894 149.208 67.6854C149.046 67.6854 148.89 67.6601 148.737 67.6121C148.66 67.5867 148.585 67.5494 148.514 67.5054C148.437 67.4681 148.365 67.4187 148.298 67.3627C148.17 67.2467 148.065 67.0827 147.985 66.8707C147.897 66.6694 147.853 66.4054 147.853 66.0828C147.853 65.7707 147.89 65.5121 147.966 65.3054C148.044 65.0948 148.141 64.9281 148.261 64.8068C148.382 64.6841 148.518 64.5948 148.669 64.5401C148.818 64.4854 148.965 64.4587 149.11 64.4587C149.46 64.4628 149.754 64.5814 149.996 64.8134C150.24 65.0507 150.364 65.3761 150.369 65.7907V66.3134L148.466 66.3134ZM149.756 65.7907C149.748 65.5454 149.685 65.3587 149.565 65.2321C149.446 65.1121 149.294 65.0534 149.11 65.0534C148.925 65.0534 148.774 65.1121 148.657 65.2321C148.54 65.3587 148.476 65.5454 148.466 65.7907H149.756Z" fill="black"/>
<path d="M152.988 67.3187C152.786 67.5547 152.525 67.6774 152.202 67.6841C152.004 67.6801 151.84 67.6374 151.709 67.5547C151.57 67.4747 151.466 67.3907 151.393 67.2987C151.313 67.1961 151.254 67.0681 151.22 66.9201C151.184 66.7707 151.164 66.4907 151.164 66.0747C151.164 65.6508 151.184 65.3654 151.22 65.2161C151.254 65.0667 151.313 64.9427 151.393 64.8427C151.466 64.744 151.57 64.6547 151.709 64.576C151.84 64.5027 152.004 64.4627 152.202 64.4587C152.505 64.4587 152.768 64.5827 152.988 64.8321V64.4974H153.601V67.5721C153.593 68.0454 153.461 68.3934 153.205 68.6161C152.948 68.8454 152.637 68.9601 152.278 68.9601C151.864 68.9521 151.512 68.7761 151.22 68.4334L151.697 68.0414C151.774 68.1174 151.865 68.1814 151.966 68.2334C152.07 68.2934 152.177 68.3254 152.29 68.3281C152.5 68.3281 152.668 68.2694 152.796 68.1494C152.92 68.0267 152.985 67.8574 152.988 67.6427V67.3187ZM151.777 66.076C151.777 66.3174 151.785 66.4841 151.801 66.5747C151.814 66.6707 151.846 66.7494 151.897 66.8134C151.94 66.8694 152.001 66.9214 152.086 66.9681C152.165 67.0241 152.265 67.0534 152.385 67.0534C152.505 67.0534 152.605 67.0241 152.686 66.9681C152.766 66.9214 152.828 66.8694 152.868 66.8134C152.92 66.7494 152.953 66.6707 152.972 66.5747C152.984 66.4841 152.988 66.3174 152.988 66.076C152.988 65.8307 152.984 65.6601 152.972 65.5641C152.953 65.4694 152.92 65.3921 152.868 65.3321C152.828 65.2761 152.766 65.2201 152.686 65.1654C152.605 65.1187 152.505 65.0921 152.385 65.0894C152.265 65.0921 152.165 65.1187 152.086 65.1654C152.001 65.2201 151.94 65.2761 151.897 65.3321C151.846 65.3921 151.814 65.4694 151.801 65.5641C151.785 65.6601 151.777 65.8307 151.777 66.076Z" fill="black"/>
<path d="M154.68 63.2227H155.293V63.8533H154.68V63.2227ZM154.68 64.4973H155.293V67.648H154.68V64.4973Z" fill="black"/>
<path d="M156.162 66.0694C156.162 65.7374 156.189 65.4828 156.242 65.3041C156.297 65.1294 156.381 64.9814 156.494 64.8641C156.579 64.7588 156.695 64.6641 156.847 64.5827C156.997 64.5041 157.187 64.4627 157.421 64.4587C157.661 64.4627 157.857 64.5041 158.006 64.5827C158.153 64.6668 158.266 64.7601 158.347 64.8654C158.469 64.9854 158.553 65.1308 158.605 65.3054C158.654 65.4828 158.678 65.7374 158.678 66.0694C158.678 66.4028 158.654 66.6548 158.605 66.8294C158.553 67.0027 158.467 67.1534 158.346 67.2814C158.306 67.3281 158.259 67.3734 158.201 67.4174C158.151 67.4681 158.086 67.5121 158.006 67.5481C157.855 67.6347 157.661 67.6801 157.419 67.6841C157.187 67.6801 156.997 67.6347 156.847 67.5481C156.695 67.4694 156.579 67.3801 156.494 67.2814C156.381 67.1534 156.297 67.0027 156.242 66.8294C156.189 66.6548 156.162 66.4028 156.162 66.0694ZM158.065 66.0761C158.065 65.8521 158.055 65.6854 158.035 65.5827C158.017 65.4828 157.977 65.3961 157.914 65.3201C157.87 65.2507 157.803 65.1948 157.714 65.1534C157.63 65.1107 157.531 65.0894 157.419 65.0894C157.317 65.0894 157.219 65.1107 157.131 65.1534C157.046 65.1948 156.978 65.2507 156.925 65.3201C156.871 65.3961 156.834 65.4828 156.81 65.5827C156.787 65.6854 156.774 65.8481 156.774 66.0694C156.774 66.2881 156.787 66.4494 156.81 66.5507C156.834 66.6547 156.871 66.7467 156.925 66.8254C156.978 66.8867 157.046 66.9401 157.131 66.9867C157.219 67.0307 157.317 67.0534 157.419 67.0534C157.531 67.0534 157.63 67.0307 157.714 66.9867C157.803 66.9401 157.87 66.8867 157.914 66.8254C157.977 66.7467 158.017 66.6547 158.035 66.5507C158.055 66.4494 158.065 66.2921 158.065 66.0761Z" fill="black"/>
<path d="M159.584 64.4978H160.197V64.8311H160.208C160.409 64.5831 160.673 64.4578 161.001 64.4578C161.253 64.4578 161.485 64.5511 161.694 64.7351C161.901 64.9218 162.01 65.1938 162.021 65.5538V67.6484H161.408V65.7698C161.408 65.5497 161.35 65.3804 161.238 65.2658C161.125 65.1484 160.981 65.0897 160.805 65.0897C160.628 65.0897 160.484 65.1484 160.37 65.2658C160.254 65.3804 160.197 65.5497 160.197 65.7698V67.6484H159.584L159.584 64.4978Z" fill="black"/>
<path d="M164.685 67.3692H164.675C164.617 67.4772 164.529 67.5559 164.409 67.6052C164.292 67.6585 164.131 67.6852 163.923 67.6852C163.581 67.6799 163.319 67.5879 163.135 67.4052C162.94 67.2278 162.844 66.9999 162.844 66.7225C162.844 66.4572 162.928 66.2385 163.097 66.0639C163.265 65.8865 163.513 65.7959 163.837 65.7905H164.685V65.4585C164.691 65.1812 164.483 65.0439 164.06 65.0532C163.907 65.0532 163.787 65.0705 163.699 65.1012C163.607 65.1399 163.533 65.2052 163.481 65.2972L163 64.9172C163.232 64.6025 163.576 64.4505 164.031 64.4585C164.415 64.4532 164.72 64.5292 164.949 64.6825C165.179 64.8412 165.295 65.1119 165.299 65.4959V67.6479H164.685L164.685 67.3692ZM164.685 66.3132H163.949C163.593 66.3199 163.416 66.4479 163.42 66.6919C163.42 66.7999 163.465 66.8905 163.559 66.9652C163.647 67.0492 163.793 67.0892 163.997 67.0892C164.255 67.0946 164.436 67.0625 164.541 66.9959C164.639 66.9292 164.685 66.7772 164.685 66.5399V66.3132ZM164.331 63.1865H165.137L164.284 64.0905H163.779L164.331 63.1865Z" fill="black"/>
<path d="M166.354 63.2229H166.967V66.8376C166.967 66.9816 167.043 67.0536 167.196 67.0536H167.408V67.6482H167.135C166.912 67.6482 166.727 67.5909 166.583 67.4749C166.43 67.3589 166.354 67.1629 166.354 66.8869V63.2229Z" fill="black"/>
<path d="M168.136 63.2227H168.749V63.8533H168.136V63.2227ZM168.136 64.4973H168.749V67.648H168.136V64.4973Z" fill="black"/>
<path d="M169.859 66.686C170.109 66.954 170.43 67.09 170.826 67.09C171.002 67.09 171.146 67.0553 171.258 66.9834C171.371 66.914 171.427 66.814 171.427 66.686C171.427 66.574 171.394 66.4954 171.327 66.4487C171.258 66.402 171.166 66.378 171.053 66.374L170.51 66.3247C170.254 66.3007 170.045 66.2114 169.883 66.058C169.718 65.9074 169.635 65.698 169.63 65.43C169.635 65.106 169.746 64.8634 169.962 64.7007C170.175 64.538 170.443 64.458 170.769 64.458C170.91 64.458 171.037 64.4674 171.147 64.486C171.261 64.5047 171.365 64.534 171.463 64.57C171.651 64.65 171.749 64.7567 171.898 64.89L171.59 65.3473C171.471 65.2594 171.346 65.186 171.214 65.1287C171.086 65.0794 170.935 65.0527 170.767 65.0527C170.574 65.0527 170.441 65.0874 170.363 65.1594C170.283 65.23 170.243 65.322 170.243 65.4327C170.239 65.5034 170.269 65.566 170.334 65.618C170.394 65.6767 170.497 65.7154 170.646 65.73L171.153 65.77C171.471 65.794 171.629 65.8953 171.771 66.07C171.902 66.2393 171.969 66.4554 171.969 66.7167C171.965 67.0234 171.915 67.2567 171.678 67.4234C171.442 67.5941 171.142 67.6807 170.774 67.6847C170.277 67.6847 169.829 67.4967 169.431 67.1207L169.859 66.686Z" fill="black"/>
<path d="M96.2588 71.2785H95.0841V70.6838H98.0828V71.2785H96.9081V75.1092H96.2588V71.2785Z" fill="black"/>
<path d="M98.174 71.9583H98.7873V73.837C98.7873 74.049 98.8446 74.2156 98.9606 74.3343C99.0739 74.4543 99.2193 74.5143 99.3953 74.5143C99.5713 74.5143 99.7153 74.4543 99.8286 74.3343C99.9419 74.2156 99.9979 74.049 99.9979 73.837V71.9583H100.611V75.1089H99.9979V74.7716H99.9873C99.786 75.021 99.5219 75.1449 99.1966 75.1449C98.9446 75.141 98.7153 75.0463 98.5126 74.8596C98.2913 74.6796 98.1779 74.4103 98.174 74.0543L98.174 71.9583Z" fill="black"/>
<path d="M103.499 74.7796C103.297 75.0143 103.033 75.1383 102.709 75.1449C102.525 75.1409 102.367 75.1009 102.237 75.0276C102.098 74.9543 101.985 74.8569 101.893 74.7356C101.809 74.6356 101.753 74.5023 101.725 74.3316C101.691 74.1689 101.675 73.9023 101.675 73.5289C101.675 73.1516 101.691 72.881 101.725 72.7223C101.753 72.5596 101.809 72.429 101.893 72.3303C102.065 72.0663 102.337 71.929 102.709 71.9183C102.866 71.9183 103.01 71.9529 103.145 72.0196C103.267 72.089 103.385 72.1796 103.499 72.2903V70.6836H104.113V75.1089H103.499L103.499 74.7796ZM102.897 72.5502C102.751 72.5502 102.641 72.5756 102.565 72.6263C102.479 72.681 102.417 72.757 102.379 72.8503C102.341 72.9463 102.317 73.0516 102.305 73.1623C102.293 73.2823 102.289 73.4049 102.289 73.5303C102.289 73.6503 102.293 73.7676 102.305 73.8809C102.317 74.0009 102.341 74.1089 102.379 74.205C102.417 74.2956 102.479 74.3703 102.565 74.4289C102.641 74.4849 102.751 74.5143 102.897 74.5143C103.041 74.5143 103.157 74.4836 103.239 74.4236C103.325 74.3636 103.382 74.2863 103.414 74.1903C103.454 74.0969 103.479 73.9889 103.493 73.8716C103.498 73.7556 103.499 73.6423 103.499 73.5303C103.499 73.409 103.498 73.2929 103.493 73.1796C103.479 73.0689 103.454 72.9649 103.414 72.8703C103.382 72.7743 103.325 72.697 103.239 72.6383C103.157 72.5796 103.041 72.5502 102.897 72.5502Z" fill="black"/>
<path d="M104.911 73.5299C104.911 73.1979 104.938 72.9432 104.991 72.7645C105.046 72.5899 105.13 72.4419 105.243 72.3245C105.328 72.2192 105.444 72.1245 105.596 72.0432C105.746 71.9645 105.936 71.9232 106.17 71.9192C106.41 71.9232 106.606 71.9645 106.755 72.0432C106.902 72.1272 107.015 72.2205 107.096 72.3259C107.218 72.4459 107.302 72.5912 107.354 72.7659C107.403 72.9432 107.427 73.1978 107.427 73.5299C107.427 73.8632 107.403 74.1152 107.354 74.2899C107.302 74.4632 107.216 74.6139 107.095 74.7419C107.055 74.7885 107.008 74.8339 106.95 74.8779C106.9 74.9285 106.835 74.9725 106.755 75.0085C106.604 75.0952 106.41 75.1405 106.168 75.1445C105.936 75.1405 105.746 75.0952 105.596 75.0085C105.444 74.9299 105.328 74.8405 105.243 74.7419C105.13 74.6139 105.046 74.4632 104.991 74.2899C104.938 74.1152 104.911 73.8632 104.911 73.5299ZM106.814 73.5365C106.814 73.3125 106.804 73.1472 106.784 73.0432C106.766 72.9432 106.726 72.8565 106.663 72.7805C106.619 72.7112 106.552 72.6552 106.463 72.6139C106.379 72.5712 106.28 72.5499 106.168 72.5499C106.066 72.5499 105.968 72.5712 105.88 72.6139C105.795 72.6552 105.727 72.7112 105.674 72.7805C105.62 72.8565 105.583 72.9432 105.559 73.0432C105.536 73.1472 105.523 73.3085 105.523 73.5299C105.523 73.7485 105.536 73.9099 105.559 74.0112C105.583 74.1152 105.62 74.2072 105.674 74.2858C105.727 74.3472 105.795 74.4005 105.88 74.4472C105.968 74.4912 106.066 74.5138 106.168 74.5138C106.28 74.5138 106.379 74.4912 106.463 74.4472C106.552 74.4005 106.619 74.3472 106.663 74.2858C106.726 74.2072 106.766 74.1152 106.784 74.0112C106.804 73.9099 106.814 73.7525 106.814 73.5365Z" fill="black"/>
<path d="M108.309 71.9583H108.922V72.2916H108.934C109.142 72.0437 109.417 71.9183 109.757 71.9183C109.975 71.9237 110.151 71.9596 110.285 72.0317C110.415 72.1103 110.537 72.2103 110.646 72.3317C110.891 72.053 111.225 71.9143 111.638 71.9183C111.899 71.9183 112.138 72.0116 112.354 72.1956C112.569 72.3823 112.681 72.6543 112.689 73.0143V75.109H112.075V73.2303C112.075 73.0103 112.017 72.841 111.899 72.7263C111.782 72.609 111.631 72.5503 111.446 72.5503C111.261 72.5503 111.107 72.609 110.989 72.7263C110.867 72.841 110.806 73.0103 110.806 73.2303V75.109H110.194V73.2303C110.194 73.0103 110.134 72.841 110.018 72.7263C109.898 72.609 109.746 72.5503 109.561 72.5503C109.375 72.5503 109.223 72.609 109.107 72.7263C108.982 72.841 108.922 73.0103 108.922 73.2303V75.109H108.309L108.309 71.9583Z" fill="black"/>
<path d="M115.392 74.8297H115.382C115.324 74.9376 115.236 75.0163 115.116 75.0657C115 75.119 114.838 75.1457 114.63 75.1457C114.288 75.1403 114.026 75.0483 113.842 74.8656C113.647 74.6883 113.551 74.4603 113.551 74.183C113.551 73.9176 113.635 73.699 113.804 73.5243C113.972 73.347 114.22 73.2563 114.544 73.251H115.392V72.919C115.398 72.6416 115.19 72.5043 114.767 72.5137C114.614 72.5137 114.494 72.531 114.407 72.5616C114.314 72.6003 114.24 72.6656 114.188 72.7576L113.707 72.3776C113.939 72.063 114.283 71.911 114.738 71.919C115.122 71.9137 115.428 71.9897 115.656 72.143C115.886 72.3017 116.002 72.5723 116.006 72.9563V75.1083H115.392L115.392 74.8297ZM115.392 73.7736H114.656C114.3 73.7803 114.123 73.9083 114.127 74.1523C114.127 74.2603 114.172 74.351 114.266 74.4257C114.354 74.5096 114.5 74.5496 114.704 74.5496C114.962 74.555 115.143 74.523 115.248 74.4563C115.346 74.3896 115.392 74.2377 115.392 74.0003V73.7736ZM115.038 70.647H115.846L114.991 71.551H114.486L115.038 70.647Z" fill="black"/>
<path d="M117.061 71.9582H117.674V72.2915H117.685C117.886 72.0436 118.15 71.9182 118.478 71.9182C118.73 71.9182 118.962 72.0116 119.171 72.1956C119.378 72.3822 119.487 72.6542 119.498 73.0142V75.1089H118.885V73.2302C118.885 73.0102 118.827 72.8409 118.715 72.7262C118.602 72.6089 118.458 72.5502 118.282 72.5502C118.105 72.5502 117.961 72.6089 117.847 72.7262C117.731 72.8409 117.674 73.0102 117.674 73.2302V75.1089H117.061L117.061 71.9582Z" fill="black"/>
<path d="M120.12 71.9583H120.769L121.492 74.165H121.504L122.224 71.9583H122.876L121.563 75.7609C121.479 75.9983 121.363 76.1623 121.212 76.2529C121.063 76.3396 120.892 76.3836 120.703 76.3836H120.5V75.7889H120.679C120.759 75.7889 120.833 75.7663 120.901 75.7223C120.969 75.6743 121.019 75.6063 121.045 75.5156L121.212 74.9863L120.12 71.9583Z" fill="black"/>
<path d="M123.5 70.6838H124.113V71.3145H123.5V70.6838ZM123.5 71.9585H124.113V75.1092H123.5V71.9585Z" fill="black"/>
<path d="M126.84 70.6836H127.489V72.9636H127.501L129.267 70.6836H130.037L128.664 72.429L130.181 75.1089H129.411L128.243 72.9449L127.489 73.7609V75.1089H126.84V70.6836Z" fill="black"/>
<path d="M130.749 71.9583H131.363V73.837C131.363 74.049 131.42 74.2156 131.536 74.3343C131.649 74.4543 131.795 74.5143 131.971 74.5143C132.147 74.5143 132.291 74.4543 132.404 74.3343C132.517 74.2156 132.573 74.049 132.573 73.837V71.9583H133.187V75.1089H132.573V74.7716H132.563C132.361 75.021 132.097 75.1449 131.772 75.1449C131.52 75.141 131.291 75.0463 131.088 74.8596C130.867 74.6796 130.753 74.4103 130.749 74.0543L130.749 71.9583Z" fill="black"/>
<path d="M134.287 70.999H134.9V71.9577H135.346V72.4444H134.9V74.2804C134.895 74.4404 134.968 74.5177 135.118 74.5137H135.346V75.1083H135.026C134.811 75.1083 134.635 75.0404 134.498 74.9017C134.356 74.7724 134.287 74.5803 134.287 74.3337V72.4444H133.979V71.9577H134.287L134.287 70.999Z" fill="black"/>
<path d="M137.741 74.8294H137.73C137.673 74.9374 137.585 75.0161 137.465 75.0667C137.348 75.1201 137.185 75.1454 136.977 75.1454C136.636 75.1414 136.373 75.0481 136.19 74.8654C135.996 74.6881 135.898 74.4614 135.898 74.1828C135.898 73.9174 135.984 73.6987 136.152 73.5241C136.321 73.3468 136.568 73.2561 136.893 73.2507H137.741V72.9188C137.745 72.6414 137.537 72.5041 137.116 72.5134C136.962 72.5134 136.842 72.5308 136.754 72.5628C136.662 72.6001 136.589 72.6654 136.536 72.7588L136.054 72.3774C136.288 72.0628 136.632 71.9108 137.085 71.9188C137.469 71.9148 137.776 71.9908 138.005 72.1441C138.234 72.3014 138.349 72.5734 138.354 72.9574V75.1094H137.741L137.741 74.8294ZM137.741 73.7734H137.005C136.649 73.7814 136.47 73.9081 136.476 74.1534C136.476 74.2601 136.521 74.3521 136.613 74.4254C136.701 74.5094 136.849 74.5507 137.052 74.5507C137.31 74.5548 137.49 74.5227 137.597 74.4561C137.694 74.3894 137.741 74.2374 137.741 74.0014V73.7734Z" fill="black"/>
<path d="M139.445 70.999H140.059V71.9577H140.504V72.4444H140.059V74.2804C140.053 74.4404 140.127 74.5177 140.276 74.5137H140.504V75.1083H140.184C139.969 75.1083 139.793 75.0404 139.656 74.9017C139.515 74.7724 139.445 74.5803 139.445 74.3337V72.4444H139.137V71.9577H139.445L139.445 70.999Z" fill="black"/>
<path d="M141.145 73.531C141.145 73.1977 141.172 72.943 141.225 72.7643C141.28 72.5896 141.364 72.4416 141.477 72.3243C141.563 72.219 141.679 72.1256 141.831 72.043C141.98 71.9643 142.171 71.923 142.405 71.919C142.644 71.923 142.84 71.9643 142.989 72.043C143.136 72.127 143.251 72.2203 143.331 72.3256C143.452 72.4457 143.537 72.591 143.588 72.7657C143.637 72.943 143.661 73.1977 143.661 73.531C143.661 73.863 143.637 74.115 143.588 74.2897C143.537 74.4643 143.451 74.6136 143.329 74.7417C143.289 74.7883 143.243 74.8337 143.185 74.8776C143.135 74.9283 143.069 74.9723 142.989 75.0083C142.839 75.095 142.644 75.1403 142.403 75.1457C142.171 75.1403 141.98 75.095 141.831 75.0083C141.679 74.9296 141.563 74.8403 141.477 74.7417C141.364 74.6136 141.28 74.4643 141.225 74.2897C141.172 74.115 141.145 73.863 141.145 73.531ZM143.048 73.5363C143.048 73.3123 143.039 73.147 143.02 73.043C143 72.943 142.96 72.8563 142.899 72.7803C142.853 72.711 142.787 72.655 142.697 72.6136C142.615 72.571 142.516 72.5496 142.403 72.5496C142.3 72.5496 142.203 72.571 142.115 72.6136C142.029 72.655 141.961 72.711 141.908 72.7803C141.856 72.8563 141.817 72.943 141.793 73.043C141.771 73.147 141.759 73.3083 141.759 73.531C141.759 73.7483 141.771 73.9097 141.793 74.011C141.817 74.115 141.856 74.207 141.908 74.2856C141.961 74.347 142.029 74.4003 142.115 74.447C142.203 74.491 142.3 74.5137 142.403 74.5137C142.516 74.5137 142.615 74.491 142.697 74.447C142.787 74.4003 142.853 74.347 142.899 74.2856C142.96 74.207 143 74.115 143.02 74.011C143.039 73.9097 143.048 73.7523 143.048 73.5363ZM142.541 70.647H143.349L142.495 71.551H141.989L142.541 70.647Z" fill="black"/>
<path d="M144.567 70.6836H145.181V73.4369H145.193L146.366 71.9583H147.102L146.049 73.1876L147.246 75.1089H146.475L145.663 73.637L145.181 74.2009V75.1089H144.567V70.6836Z" fill="black"/>
<path d="M147.802 73.5306C147.802 73.1986 147.83 72.9439 147.882 72.7639C147.937 72.5893 148.021 72.4426 148.134 72.3239C148.22 72.2199 148.337 72.1253 148.489 72.0439C148.637 71.9639 148.829 71.9239 149.062 71.9186C149.303 71.924 149.498 71.964 149.646 72.0439C149.793 72.1266 149.908 72.2213 149.988 72.3253C150.109 72.4453 150.194 72.5906 150.246 72.7653C150.295 72.9439 150.318 73.1986 150.318 73.5306C150.318 73.8626 150.295 74.1146 150.246 74.2893C150.194 74.464 150.108 74.6146 149.986 74.7413C149.946 74.7893 149.9 74.8346 149.842 74.8786C149.792 74.928 149.726 74.9719 149.647 75.0093C149.496 75.0946 149.302 75.1413 149.061 75.1453C148.829 75.1413 148.637 75.0946 148.489 75.0093C148.337 74.9293 148.22 74.8399 148.134 74.7413C148.021 74.6146 147.937 74.464 147.882 74.2893C147.83 74.1146 147.802 73.8626 147.802 73.5306ZM148.209 70.7986H148.858V71.4666H148.209V70.7986ZM149.705 73.5373C149.705 73.3119 149.697 73.1466 149.677 73.0439C149.657 72.9439 149.617 72.8573 149.556 72.7812C149.512 72.7106 149.445 72.6546 149.354 72.6133C149.272 72.5719 149.173 72.5506 149.061 72.5506C148.957 72.5506 148.86 72.5719 148.772 72.6133C148.688 72.6546 148.618 72.7106 148.566 72.7812C148.513 72.8573 148.474 72.9439 148.45 73.0439C148.428 73.1466 148.416 73.3093 148.416 73.5306C148.416 73.7493 148.428 73.9106 148.45 74.0119C148.474 74.1146 148.513 74.2079 148.566 74.2866C148.618 74.3466 148.688 74.3999 148.772 74.4466C148.86 74.4906 148.957 74.5146 149.061 74.5146C149.173 74.5146 149.272 74.4906 149.354 74.4466C149.445 74.3999 149.512 74.3466 149.556 74.2866C149.617 74.2079 149.657 74.1146 149.677 74.0119C149.697 73.9106 149.705 73.752 149.705 73.5373ZM149.305 70.7986H149.954V71.4666H149.305V70.7986Z" fill="black"/>
<path d="M151.025 74.6081L152.553 72.5174H151.059V71.9587H153.301V72.4628L151.723 74.5134H153.301V75.1094H151.025V74.6081Z" fill="black"/>
<path d="M154.144 71.9578H154.758V72.2858C154.962 72.0512 155.224 71.9298 155.546 71.9192C155.919 71.9299 156.194 72.0658 156.364 72.3312C156.448 72.4299 156.506 72.5605 156.538 72.7232C156.567 72.8818 156.582 73.1538 156.582 73.5365C156.582 73.9085 156.567 74.1752 156.538 74.3379C156.506 74.5005 156.448 74.6325 156.364 74.7352C156.28 74.8565 156.17 74.9539 156.032 75.0272C155.898 75.1005 155.735 75.1405 155.546 75.1459C155.39 75.1459 155.248 75.1098 155.126 75.0392C154.991 74.9752 154.87 74.8872 154.758 74.7738V76.3832H154.144V71.9578ZM155.36 74.5138C155.506 74.5138 155.62 74.4845 155.704 74.4285C155.79 74.3698 155.848 74.2952 155.884 74.2045C155.923 74.1085 155.95 74.0019 155.964 73.8872C155.967 73.7738 155.968 73.6565 155.968 73.5365C155.968 73.4112 155.967 73.2872 155.964 73.1672C155.95 73.0472 155.923 72.9432 155.884 72.8512C155.848 72.7565 155.79 72.6805 155.704 72.6258C155.62 72.5765 155.506 72.5498 155.36 72.5498C155.224 72.5498 155.115 72.5791 155.034 72.6378C154.951 72.6978 154.888 72.7752 154.848 72.8698C154.812 72.9645 154.787 73.0685 154.776 73.1805C154.764 73.2978 154.758 73.4165 154.758 73.5365C154.758 73.6485 154.764 73.7592 154.776 73.8725C154.787 73.9885 154.812 74.0965 154.848 74.1912C154.888 74.2858 154.951 74.3632 155.034 74.4231C155.115 74.4831 155.224 74.5138 155.36 74.5138Z" fill="black"/>
<path d="M157.382 73.5299C157.382 73.1979 157.408 72.9432 157.461 72.7645C157.516 72.5899 157.601 72.4419 157.714 72.3245C157.798 72.2192 157.916 72.1245 158.066 72.0432C158.216 71.9645 158.406 71.9232 158.64 71.9192C158.881 71.9232 159.076 71.9645 159.226 72.0432C159.372 72.1272 159.485 72.2205 159.566 72.3259C159.688 72.4459 159.773 72.5912 159.824 72.7659C159.872 72.9432 159.898 73.1978 159.898 73.5299C159.898 73.8632 159.872 74.1152 159.824 74.2899C159.773 74.4632 159.687 74.6139 159.566 74.7419C159.526 74.7885 159.478 74.8339 159.421 74.8779C159.37 74.9285 159.305 74.9725 159.224 75.0085C159.076 75.0952 158.881 75.1405 158.64 75.1445C158.406 75.1405 158.216 75.0952 158.066 75.0085C157.916 74.9299 157.798 74.8405 157.714 74.7419C157.601 74.6139 157.516 74.4632 157.461 74.2899C157.408 74.1152 157.382 73.8632 157.382 73.5299ZM159.285 73.5365C159.285 73.3125 159.274 73.1472 159.256 73.0432C159.237 72.9432 159.196 72.8565 159.134 72.7805C159.089 72.7112 159.022 72.6552 158.934 72.6139C158.849 72.5712 158.752 72.5499 158.64 72.5499C158.536 72.5499 158.44 72.5712 158.35 72.6139C158.266 72.6552 158.198 72.7112 158.145 72.7805C158.092 72.8565 158.053 72.9432 158.03 73.0432C158.005 73.1472 157.994 73.3085 157.994 73.5299C157.994 73.7485 158.005 73.9099 158.03 74.0112C158.053 74.1152 158.092 74.2072 158.145 74.2858C158.198 74.3472 158.266 74.4005 158.35 74.4472C158.44 74.4912 158.536 74.5138 158.64 74.5138C158.752 74.5138 158.849 74.4912 158.934 74.4472C159.022 74.4005 159.089 74.3472 159.134 74.2858C159.196 74.2072 159.237 74.1152 159.256 74.0112C159.274 73.9099 159.285 73.7525 159.285 73.5365Z" fill="black"/>
<path d="M160.802 71.9582H161.416V72.2915H161.428C161.629 72.0436 161.893 71.9182 162.22 71.9182C162.473 71.9182 162.704 72.0116 162.913 72.1956C163.121 72.3822 163.23 72.6542 163.24 73.0142V75.1089H162.626V73.2302C162.626 73.0102 162.57 72.8409 162.457 72.7262C162.344 72.6089 162.2 72.5502 162.024 72.5502C161.848 72.5502 161.702 72.6089 161.589 72.7262C161.473 72.8409 161.416 73.0102 161.416 73.2302V75.1089H160.802V71.9582Z" fill="black"/>
<path d="M164.34 70.999H164.953V71.9577H165.399V72.4444H164.953V74.2804C164.948 74.4404 165.021 74.5177 165.171 74.5137H165.399V75.1083H165.079C164.864 75.1083 164.688 75.0404 164.551 74.9017C164.409 74.7724 164.34 74.5803 164.34 74.3337V72.4444H164.032V71.9577H164.34L164.34 70.999Z" fill="black"/>
<path d="M25.3287 23.1492C26.5887 23.1492 27.81 23.1466 29.0327 23.1572C29.1074 23.1586 29.2207 23.2626 29.2447 23.3412C29.2941 23.4945 29.3114 23.6652 29.3114 23.8279C29.318 28.5732 29.2927 33.3279 29.3394 38.0719C29.3567 39.8052 29.886 41.3772 31.3634 42.4812C32.1914 43.0985 33.1314 43.4479 34.15 43.5439C34.9554 43.6199 35.7754 43.6892 36.5767 43.6239C38.0074 43.5092 39.4074 43.2279 40.5314 42.2279C41.3687 41.4825 41.8367 40.5279 42.0327 39.4399C42.11 39.0159 42.1607 38.5812 42.1634 38.1519C42.186 33.5599 42.198 28.9586 42.2127 24.3679C42.214 23.9719 42.2127 23.5746 42.2127 23.1492H45.6673C46.1193 23.1492 46.174 23.2053 46.174 23.6732V24.8253C46.1727 29.2306 46.1873 33.6466 46.1607 38.0532C46.154 39.2585 46.0713 40.4719 45.686 41.6359C44.9513 43.8465 43.49 45.3972 41.3647 46.3426C40.4127 46.7665 39.4034 46.9692 38.3874 47.1692C37.122 47.4186 35.8514 47.3546 34.582 47.3212C32.3594 47.2652 30.29 46.6852 28.4674 45.3799C27.2794 44.5292 26.4474 43.3905 25.9167 42.0319C25.5274 41.0306 25.3047 40.0065 25.3087 38.9172C25.3234 34.7946 25.3007 30.6612 25.2954 26.5373C25.2941 25.4759 25.3061 24.4146 25.3127 23.3533C25.3127 23.2986 25.3207 23.2439 25.3287 23.1492Z" fill="#148FFF"/>
<path d="M17.219 23.1492V36.8039H17.2257V47.0505H21.315V23.1492H17.219Z" fill="#148FFF"/>
<path d="M0.000488281 23.1621V47.0234H4.17914V36.8034H15.3778V33.1181H4.16715V23.1621H0.000488281Z" fill="#148FFF"/>
<path d="M45.2566 54.8079C40.1526 54.8053 35.0486 54.8039 29.9433 54.8013C29.81 54.8013 29.6687 54.7626 29.67 54.9906C29.6753 56.9812 29.6727 58.9719 29.6727 60.9999H44.442V64.8359H29.6673V71.0359C29.6633 71.0679 29.6593 71.0999 29.6553 71.1305C29.7513 71.1732 29.846 71.2532 29.942 71.2546C34.1207 71.2612 38.2993 71.2612 42.4766 71.2625C43.562 71.2625 44.646 71.2652 45.7313 71.2679H46.058V74.9972H25.5433V51.1279H45.5593C45.5593 51.5653 45.558 52.0052 45.5606 52.4453C45.5646 53.1399 45.57 53.8346 45.5806 54.5293C45.582 54.7052 45.582 54.8586 45.3353 54.8092C45.3086 54.8092 45.282 54.8079 45.2566 54.8079Z" fill="#148FFF"/>
<path d="M71.3232 75.0201V51.1175H67.4126C67.4086 51.2135 67.4019 51.2908 67.4019 51.3668C67.3952 55.5801 67.3886 59.8241 67.3846 64.0374C67.3832 65.1668 67.3966 66.2974 67.3966 67.4268C67.3966 67.5521 67.3539 67.6788 67.3192 67.8707C67.2219 67.7668 67.1885 67.7374 67.1619 67.7028C64.4499 64.0894 61.7379 60.4774 59.0272 56.8628C57.6926 55.0841 56.3539 53.3068 55.0312 51.5174C54.8139 51.2241 54.5819 51.1108 54.2126 51.1175C52.9432 51.1428 51.6752 51.1268 50.4059 51.1268H50.0206C50.0099 51.1628 50.0072 51.1961 50.0032 51.2308H49.9952V75.0241H53.5846C53.6112 75.0241 53.6366 75.0241 53.6619 75.0227H53.9779V56.8628C54.7952 57.9601 55.6112 59.0601 56.4299 60.1574C59.2525 63.9401 62.0765 67.7227 64.8992 71.5054C65.6766 72.5454 66.4499 73.5894 67.2312 74.6254C67.3686 74.8081 67.4739 75.0267 67.7739 75.0241C68.9512 75.0134 70.1272 75.0201 71.3232 75.0201Z" fill="#148FFF"/>
<path d="M71.3232 47.0193V23.1167H67.4126C67.4086 23.2127 67.4019 23.29 67.4019 23.366C67.3952 27.5794 67.3886 31.8234 67.3846 36.0367C67.3832 37.166 67.3966 38.2967 67.3966 39.426C67.3966 39.5513 67.3539 39.678 67.3192 39.87C67.2219 39.766 67.1885 39.7367 67.1619 39.702C64.4499 36.0887 61.7379 32.4767 59.0272 28.862C57.6926 27.0834 56.3539 25.3061 55.0312 23.5167C54.8139 23.2234 54.5819 23.1101 54.2126 23.1167C52.9432 23.142 51.6752 23.1261 50.4059 23.1261H50.0206C50.0099 23.1621 50.0072 23.1954 50.0032 23.2301H49.9952V47.0233H53.5846C53.6112 47.0233 53.6366 47.0233 53.6619 47.022H53.9779V28.862C54.7952 29.9594 55.6112 31.0594 56.4299 32.1567C59.2525 35.9394 62.0765 39.722 64.8992 43.5047C65.6766 44.5447 66.4499 45.5887 67.2312 46.6247C67.3686 46.8073 67.4739 47.026 67.7739 47.0234C68.9512 47.0127 70.1272 47.0193 71.3232 47.0193Z" fill="#148FFF"/>
<path d="M20.4298 61.751C21.4191 58.783 21.0458 55.8444 19.8431 54.0284C18.6405 52.2137 16.4738 51.1404 14.2511 51.1404H8.34448L8.09114 51.1177C5.48715 51.115 3.17116 51.1204 0.567154 51.1177H0.000488281V75.0243C0.0698215 75.0283 0.124488 75.035 0.179155 75.0337C1.38715 75.0297 2.59648 75.0123 3.80582 75.0243C4.10848 75.0257 4.18315 74.9377 4.18182 74.639C4.16982 71.7737 4.17515 68.907 4.17515 66.0403V65.6963H4.19648V54.8337C4.81915 54.8337 5.42181 54.835 6.02448 54.8337C8.06448 54.8284 10.1058 54.7844 12.1458 54.8097C12.1471 54.8097 12.1485 54.8084 12.1485 54.8084C12.4845 54.8084 13.1071 54.7964 13.7445 54.8497C13.7938 54.8537 13.8418 54.8577 13.8885 54.8644C14.4591 54.923 15.0245 55.039 15.3831 55.2737C16.1738 55.7884 16.7205 56.4257 16.8231 58.251C16.9258 60.0764 16.3338 60.7537 15.5498 61.3937C14.7658 62.0337 12.8925 61.9897 12.8925 61.9897H12.2365V61.9883C10.1738 61.995 8.11248 61.9937 6.04981 61.9924V65.699C7.71781 65.7097 9.38714 65.7217 11.0551 65.7444C11.1645 65.7457 11.3125 65.8297 11.3711 65.9217C11.6205 66.299 11.8445 66.695 12.0765 67.0857C13.6511 69.7257 15.2245 72.3657 16.7965 75.0017H21.6058C19.6431 71.8177 17.7071 68.679 15.8205 65.6164C15.8205 65.6164 19.4405 64.719 20.4298 61.751Z" fill="#148FFF"/>
<path d="M83.5359 23.116H83.2506V75.0785H83.5359V23.116Z" fill="black"/>
</g>
</g>
<path d="M191.969 0V99.5" stroke="#9795B5" stroke-width="0.5"/>
<g clip-path="url(#clip1_2422_4576)">
<path d="M235.217 44.7213C235.759 44.1081 236.609 43.8009 237.482 43.8009C238.073 43.8009 238.309 44.0372 241.66 45.7836L243.572 43.7772C242.32 41.6764 239.914 40.45 237.482 40.45C233.541 40.45 230.378 43.541 230.378 47.3408V51.1419C230.378 54.8698 233.541 58.0092 237.482 58.0092C239.914 58.0092 242.32 56.758 243.572 54.6583L241.66 52.652C238.309 54.422 238.073 54.6346 237.482 54.6346C236.609 54.6346 235.759 54.3511 235.217 53.7131C234.697 53.1471 234.697 52.8647 234.697 52.2503V46.1841C234.697 45.5945 234.697 45.2873 235.217 44.7213Z" fill="black"/>
<path d="M245.459 57.5607H257.449V54.1389H249.637V50.7406H256.057V47.3649H249.637V44.2739H257.449V40.8982H245.459V57.5607Z" fill="black"/>
<path d="M269.061 40.8982V51.1423C269.061 51.1559 269.063 51.1694 269.063 51.1829C269.063 51.1975 269.061 51.2098 269.061 51.2245V51.256H269.058C269.02 52.6637 267.869 53.7957 266.45 53.7957C265.007 53.7957 263.838 52.6266 263.838 51.1829C263.838 51.1423 263.843 51.103 263.844 51.0625V40.8982H259.691V51.471C259.691 54.9884 262.712 58.0097 266.441 58.0097C270.194 58.0097 273.214 54.9884 273.214 51.471V40.8982L269.061 40.8982Z" fill="black"/>
<path d="M236.955 24.25C235.915 24.25 234.537 24.3603 234.537 24.3603L236.955 31.1848L239.366 24.3637C239.366 24.3637 238.397 24.25 236.955 24.25Z" fill="black"/>
<path d="M247.583 26.387L246.683 32.9753L251.763 28.8051C251.763 28.8051 250.984 28.2177 249.733 27.4965C248.835 26.9766 247.583 26.387 247.583 26.387Z" fill="black"/>
<path d="M236.948 67.2913L234.537 74.1113C234.537 74.1113 235.504 74.2261 236.948 74.2261C237.985 74.2261 239.366 74.1147 239.366 74.1147L236.948 67.2913Z" fill="black"/>
<path d="M215.347 36.6597C214.827 37.5599 214.234 38.8089 214.234 38.8089L221.352 40.1277L216.651 34.6287C216.651 34.6287 216.068 35.4107 215.347 36.6597Z" fill="#00A9D5"/>
<path d="M211.969 49.2521C211.969 50.2919 212.081 51.6703 212.081 51.6703L218.904 49.2521L212.083 46.8408C212.083 46.8408 211.969 47.8096 211.969 49.2521Z" fill="black"/>
<path d="M215.291 61.7012C215.811 62.6014 216.595 63.7402 216.595 63.7402L221.296 58.2344L214.184 59.5554C214.184 59.5554 214.57 60.4522 215.291 61.7012Z" fill="black"/>
<path d="M224.561 70.9468C225.461 71.4678 226.71 72.0596 226.71 72.0596L228.028 64.9414L222.53 69.6426C222.53 69.6426 223.312 70.2255 224.561 70.9468Z" fill="black"/>
<path d="M249.718 70.7358C250.618 70.216 251.757 69.4317 251.757 69.4317L246.251 64.7305L247.572 71.8431C247.572 71.8431 248.469 71.4571 249.718 70.7358Z" fill="black"/>
<path d="M224.735 27.3899C223.834 27.9098 222.696 28.6952 222.696 28.6952L228.203 33.3953L226.88 26.2827C226.88 26.2827 225.984 26.6686 224.735 27.3899Z" fill="black"/>
</g>
<defs>
<clipPath id="clip0_2422_4576">
<rect width="171.969" height="53.2679" fill="white" transform="translate(0 23.116)"/>
</clipPath>
<clipPath id="clip1_2422_4576">
<rect width="61" height="51" fill="white" transform="translate(211.969 24.25)"/>
</clipPath>
</defs>
</svg>
